# Blender v2.91.0 OBJ File: 'beatbar.blend'
# www.blender.org
o Cylinder
v -0.942989 -1.764840 -0.189380
v -0.942989 -1.764841 0.189378
v -1.269174 -1.546962 -0.189380
v -1.269174 -1.546962 0.189378
v -1.546584 -1.269633 -0.189379
v -1.546584 -1.269634 0.189378
v -1.764560 -0.943514 -0.189379
v -1.764560 -0.943514 0.189378
v -1.914725 -0.581136 -0.189379
v -1.914725 -0.581136 0.189378
v -1.991309 -0.196425 -0.189379
v -1.991309 -0.196425 0.189378
v -1.991367 0.195834 -0.189379
v -1.991367 0.195834 0.189379
v -1.914898 0.580568 -0.189379
v -1.914898 0.580568 0.189379
v -1.764841 0.942990 -0.189379
v -1.764841 0.942990 0.189379
v -1.546962 1.269175 -0.189379
v -1.546962 1.269174 0.189379
v -1.269634 1.546585 -0.189379
v -1.269634 1.546585 0.189379
v -0.943514 1.764561 -0.189379
v -0.943514 1.764561 0.189379
v -0.581136 1.914726 -0.189379
v -0.581136 1.914726 0.189379
v -0.196425 1.991309 -0.189379
v -0.196425 1.991309 0.189379
v 0.195835 1.991368 -0.189379
v 0.195835 1.991368 0.189379
v 0.580568 1.914899 -0.189379
v 0.580568 1.914899 0.189379
v 0.942991 1.764841 -0.189379
v 0.942991 1.764841 0.189379
v 1.269175 1.546962 -0.189379
v 1.269175 1.546962 0.189379
v 1.546586 1.269634 -0.189379
v 1.546586 1.269633 0.189379
v 1.764562 0.943514 -0.189379
v 1.764562 0.943514 0.189379
v 1.914727 0.581136 -0.189379
v 1.914727 0.581136 0.189379
v 1.991310 0.196425 -0.189379
v 1.991310 0.196425 0.189379
v 1.991368 -0.195835 -0.189379
v 1.991368 -0.195835 0.189378
v 1.914898 -0.580569 -0.189379
v 1.914898 -0.580569 0.189378
v 1.764840 -0.942991 -0.189379
v 1.764840 -0.942991 0.189378
v 1.546961 -1.269175 -0.189379
v 1.546961 -1.269175 0.189378
v 1.269632 -1.546586 -0.189380
v 1.269632 -1.546586 0.189378
v 0.943513 -1.764562 -0.189380
v 0.943513 -1.764562 0.189378
v 0.581134 -1.914726 -0.189380
v 0.581134 -1.914726 0.189378
v 0.196423 -1.991309 -0.189380
v 0.196423 -1.991309 0.189378
v -0.195836 -1.991367 -0.189380
v -0.195836 -1.991367 0.189378
v -0.580570 -1.914897 -0.189380
v -0.580570 -1.914897 0.189378
vt 0.000000 0.669564
vt 0.011126 0.718810
vt 0.011126 0.669564
vt 0.000000 0.767110
vt 0.011126 0.767110
vt 0.000000 0.812607
vt 0.011126 0.812607
vt 0.011126 0.853553
vt 0.000000 0.853553
vt 0.011126 0.888375
vt 0.022252 0.500000
vt 0.033378 0.540946
vt 0.033378 0.500000
vt 0.022252 0.586443
vt 0.033378 0.586443
vt 0.022252 0.634743
vt 0.033378 0.634743
vt 0.022252 0.683989
vt 0.033378 0.683989
vt 0.033378 0.732288
vt 0.022252 0.777785
vt 0.033378 0.777785
vt 0.022252 0.818731
vt 0.033378 0.818731
vt 0.022252 0.853553
vt 0.033378 0.853553
vt 0.022252 0.500000
vt 0.011126 0.540946
vt 0.022252 0.540946
vt 0.022252 0.586443
vt 0.011126 0.634743
vt 0.022252 0.634743
vt 0.011126 0.683989
vt 0.022252 0.683989
vt 0.022252 0.732288
vt 0.011126 0.732288
vt 0.022252 0.777785
vt 0.011126 0.818732
vt 0.022252 0.818732
vt 0.022252 0.853554
vt 0.033378 0.500000
vt 0.044504 0.540946
vt 0.044504 0.500000
vt 0.033378 0.540946
vt 0.044504 0.586443
vt 0.033378 0.634743
vt 0.044504 0.634743
vt 0.044504 0.683989
vt 0.033378 0.683989
vt 0.044504 0.732288
vt 0.033378 0.777785
vt 0.044504 0.777785
vt 0.044504 0.818732
vt 0.000000 0.500000
vt 0.011126 0.534822
vt 0.011126 0.500000
vt 0.000000 0.534822
vt 0.011126 0.575768
vt 0.111403 0.819681
vt 0.818535 0.889327
vt 0.888181 0.182195
vt 0.000000 0.621265
vt 0.011126 0.621265
vt 0.649585 0.981740
vt 0.984537 0.355088
vt 0.357884 0.020135
vt 0.000000 0.718810
vt 0.000000 0.888375
vt 0.022252 0.540946
vt 0.022252 0.732288
vt 0.011126 0.500000
vt 0.011126 0.586443
vt 0.011126 0.777785
vt 0.011126 0.853554
vt 0.033378 0.586443
vt 0.033378 0.732288
vt 0.033378 0.818732
vt 0.000000 0.575768
vt 0.818535 0.112549
vt 0.736639 0.057828
vt 0.645643 0.020136
vt 0.549040 0.000920
vt 0.450545 0.000920
vt 0.353943 0.020135
vt 0.262945 0.057828
vt 0.181050 0.112549
vt 0.111403 0.182195
vt 0.056682 0.264091
vt 0.018990 0.355088
vt -0.000225 0.451690
vt -0.000225 0.550185
vt 0.018990 0.646788
vt 0.056682 0.737785
vt 0.181050 0.889327
vt 0.262945 0.944048
vt 0.353943 0.981740
vt 0.450545 1.000955
vt 0.549040 1.000955
vt 0.645642 0.981740
vt 0.736640 0.944048
vt 0.888182 0.819680
vt 0.942902 0.737785
vt 0.980595 0.646787
vt 0.999810 0.550185
vt 0.999810 0.451690
vt 0.980595 0.355088
vt 0.942902 0.264090
vt 0.740581 0.944048
vt 0.822477 0.889327
vt 0.892123 0.819681
vt 0.946844 0.737785
vt 0.984536 0.646788
vt 1.003752 0.550185
vt 1.003752 0.451691
vt 0.946844 0.264091
vt 0.740582 0.057828
vt 0.892123 0.182195
vt 0.822477 0.112549
vt 0.649584 0.020136
vt 0.552982 0.000920
vt 0.454487 0.000920
vt 0.266887 0.057828
vt 0.184992 0.112549
vt 0.115345 0.182195
vt 0.060624 0.264091
vt 0.022932 0.355088
vt 0.022932 0.646788
vt 0.003716 0.451690
vt 0.003716 0.550185
vt 0.060624 0.737785
vt 0.115345 0.819681
vt 0.184992 0.889327
vt 0.266887 0.944048
vt 0.357885 0.981740
vt 0.454487 1.000955
vt 0.552982 1.000955
vn -0.5554 -0.8316 -0.0000
vn -0.7070 -0.7072 -0.0000
vn -0.8314 -0.5557 -0.0000
vn -0.9238 -0.3828 0.0000
vn -0.9808 -0.1952 -0.0000
vn -1.0000 -0.0001 -0.0000
vn -0.9808 0.1949 0.0000
vn -0.9239 0.3825 0.0000
vn -0.8316 0.5554 0.0000
vn -0.7072 0.7070 0.0000
vn -0.5557 0.8314 0.0000
vn -0.3828 0.9238 0.0000
vn -0.1952 0.9808 0.0000
vn -0.0001 1.0000 0.0000
vn 0.1949 0.9808 0.0000
vn 0.3825 0.9239 0.0000
vn 0.5554 0.8316 0.0000
vn 0.7070 0.7072 0.0000
vn 0.8314 0.5557 0.0000
vn 0.9238 0.3828 0.0000
vn 0.9808 0.1952 0.0000
vn 1.0000 0.0001 0.0000
vn 0.9808 -0.1949 -0.0000
vn 0.9239 -0.3825 -0.0000
vn 0.8316 -0.5554 0.0000
vn 0.7072 -0.7070 0.0000
vn 0.5557 -0.8314 0.0000
vn 0.3828 -0.9238 0.0000
vn 0.1952 -0.9808 -0.0000
vn 0.0001 -1.0000 -0.0000
vn 0.0000 -0.0000 1.0000
vn -0.1949 -0.9808 -0.0000
vn -0.3825 -0.9239 -0.0000
vn -0.0000 0.0000 -1.0000
s off
f 2/1/1 3/2/1 1/3/1
f 3/2/2 6/4/2 5/5/2
f 5/5/3 8/6/3 7/7/3
f 8/6/4 9/8/4 7/7/4
f 10/9/5 11/10/5 9/8/5
f 12/11/6 13/12/6 11/13/6
f 13/12/7 16/14/7 15/15/7
f 15/15/8 18/16/8 17/17/8
f 17/17/9 20/18/9 19/19/9
f 20/18/10 21/20/10 19/19/10
f 21/20/11 24/21/11 23/22/11
f 23/22/12 26/23/12 25/24/12
f 25/24/13 28/25/13 27/26/13
f 27/27/14 30/28/14 29/29/14
f 30/28/15 31/30/15 29/29/15
f 31/30/16 34/31/16 33/32/16
f 33/32/17 36/33/17 35/34/17
f 36/33/18 37/35/18 35/34/18
f 38/36/19 39/37/19 37/35/19
f 39/37/20 42/38/20 41/39/20
f 42/38/21 43/40/21 41/39/21
f 44/41/22 45/42/22 43/43/22
f 46/44/23 47/45/23 45/42/23
f 47/45/24 50/46/24 49/47/24
f 50/46/25 51/48/25 49/47/25
f 52/49/26 53/50/26 51/48/26
f 53/50/27 56/51/27 55/52/27
f 56/51/28 57/53/28 55/52/28
f 58/54/29 59/55/29 57/56/29
f 60/57/30 61/58/30 59/55/30
f 38/59/31 22/60/31 6/61/31
f 61/58/32 64/62/32 63/63/32
f 64/62/33 1/3/33 63/63/33
f 63/64/34 15/65/34 31/66/34
f 2/1/1 4/67/1 3/2/1
f 3/2/2 4/67/2 6/4/2
f 5/5/3 6/4/3 8/6/3
f 8/6/4 10/9/4 9/8/4
f 10/9/5 12/68/5 11/10/5
f 12/11/6 14/69/6 13/12/6
f 13/12/7 14/69/7 16/14/7
f 15/15/8 16/14/8 18/16/8
f 17/17/9 18/16/9 20/18/9
f 20/18/10 22/70/10 21/20/10
f 21/20/11 22/70/11 24/21/11
f 23/22/12 24/21/12 26/23/12
f 25/24/13 26/23/13 28/25/13
f 27/27/14 28/71/14 30/28/14
f 30/28/15 32/72/15 31/30/15
f 31/30/16 32/72/16 34/31/16
f 33/32/17 34/31/17 36/33/17
f 36/33/18 38/36/18 37/35/18
f 38/36/19 40/73/19 39/37/19
f 39/37/20 40/73/20 42/38/20
f 42/38/21 44/74/21 43/40/21
f 44/41/22 46/44/22 45/42/22
f 46/44/23 48/75/23 47/45/23
f 47/45/24 48/75/24 50/46/24
f 50/46/25 52/49/25 51/48/25
f 52/49/26 54/76/26 53/50/26
f 53/50/27 54/76/27 56/51/27
f 56/51/28 58/77/28 57/53/28
f 58/54/29 60/57/29 59/55/29
f 60/57/30 62/78/30 61/58/30
f 6/61/31 4/79/31 2/80/31
f 2/80/31 64/81/31 62/82/31
f 62/82/31 60/83/31 58/84/31
f 58/84/31 56/85/31 54/86/31
f 54/86/31 52/87/31 50/88/31
f 50/88/31 48/89/31 46/90/31
f 46/90/31 44/91/31 38/59/31
f 44/91/31 42/92/31 38/59/31
f 42/92/31 40/93/31 38/59/31
f 38/59/31 36/94/31 34/95/31
f 34/95/31 32/96/31 38/59/31
f 32/96/31 30/97/31 38/59/31
f 30/97/31 28/98/31 26/99/31
f 26/99/31 24/100/31 22/60/31
f 22/60/31 20/101/31 18/102/31
f 18/102/31 16/103/31 22/60/31
f 16/103/31 14/104/31 22/60/31
f 14/104/31 12/105/31 6/61/31
f 12/105/31 10/106/31 6/61/31
f 10/106/31 8/107/31 6/61/31
f 6/61/31 2/80/31 54/86/31
f 2/80/31 62/82/31 54/86/31
f 62/82/31 58/84/31 54/86/31
f 54/86/31 50/88/31 38/59/31
f 50/88/31 46/90/31 38/59/31
f 30/97/31 26/99/31 38/59/31
f 26/99/31 22/60/31 38/59/31
f 22/60/31 14/104/31 6/61/31
f 6/61/31 54/86/31 38/59/31
f 61/58/32 62/78/32 64/62/32
f 64/62/33 2/1/33 1/3/33
f 63/64/34 1/108/34 3/109/34
f 3/109/34 5/110/34 63/64/34
f 5/110/34 7/111/34 63/64/34
f 7/111/34 9/112/34 11/113/34
f 11/113/34 13/114/34 7/111/34
f 13/114/34 15/65/34 7/111/34
f 15/65/34 17/115/34 23/116/34
f 17/115/34 19/117/34 23/116/34
f 19/117/34 21/118/34 23/116/34
f 23/116/34 25/119/34 27/120/34
f 27/120/34 29/121/34 31/66/34
f 31/66/34 33/122/34 35/123/34
f 35/123/34 37/124/34 39/125/34
f 39/125/34 41/126/34 47/127/34
f 41/126/34 43/128/34 47/127/34
f 43/128/34 45/129/34 47/127/34
f 47/127/34 49/130/34 51/131/34
f 51/131/34 53/132/34 47/127/34
f 53/132/34 55/133/34 47/127/34
f 55/133/34 57/134/34 63/64/34
f 57/134/34 59/135/34 63/64/34
f 59/135/34 61/136/34 63/64/34
f 23/116/34 27/120/34 15/65/34
f 27/120/34 31/66/34 15/65/34
f 31/66/34 35/123/34 39/125/34
f 63/64/34 7/111/34 15/65/34
f 31/66/34 39/125/34 63/64/34
f 39/125/34 47/127/34 63/64/34
f 47/127/34 55/133/34 63/64/34
