# Blender v2.93.4 OBJ File: 'CD with Unwrap-0.8M.blend'
# www.blender.org
o Cylinder
v -0.020117 0.484713 -0.448460
v 0.020117 0.484713 -0.448460
v -0.020117 0.302308 -0.409688
v 0.020117 0.302308 -0.409688
v -0.020117 0.151443 -0.300078
v 0.020117 0.151443 -0.300078
v -0.020117 0.058203 -0.138582
v 0.020117 0.058203 -0.138582
v -0.020117 0.038710 0.046877
v 0.020117 0.038710 0.046877
v -0.020117 0.096336 0.224230
v 0.020117 0.096336 0.224230
v -0.020117 0.221115 0.362811
v 0.020117 0.221115 0.362811
v -0.020117 0.391473 0.438660
v 0.020117 0.391473 0.438660
v -0.020117 0.577953 0.438660
v 0.020117 0.577953 0.438660
v -0.020117 0.748311 0.362811
v 0.020117 0.748311 0.362811
v -0.020117 0.873091 0.224230
v 0.020117 0.873091 0.224230
v -0.020117 0.930716 0.046877
v 0.020117 0.930716 0.046877
v -0.020117 0.911224 -0.138582
v 0.020117 0.911224 -0.138582
v -0.020117 0.817984 -0.300078
v 0.020117 0.817984 -0.300078
v -0.020117 0.667118 -0.409688
v 0.020117 0.667118 -0.409688
v 0.020117 0.452731 0.093685
v 0.020117 0.416347 0.077486
v 0.020117 0.377391 0.010012
v 0.020117 0.389698 0.047889
v 0.020117 0.381554 -0.029597
v 0.020117 0.401467 -0.064088
v 0.020117 0.567898 0.010012
v 0.020117 0.563735 -0.029597
v 0.020117 0.543822 -0.064088
v 0.020117 0.528941 0.077486
v 0.020117 0.555591 0.047889
v 0.020117 0.492558 0.093685
v 0.020117 0.433688 -0.087498
v 0.020117 0.472644 -0.095778
v 0.020117 0.511601 -0.087498
v -0.020117 0.452731 0.093685
v -0.020117 0.377391 0.010012
v -0.020117 0.389698 0.047889
v -0.020117 0.381554 -0.029597
v -0.020117 0.416347 0.077486
v -0.020117 0.401467 -0.064088
v -0.020117 0.567898 0.010012
v -0.020117 0.563735 -0.029597
v -0.020117 0.555591 0.047889
v -0.020117 0.543822 -0.064088
v -0.020117 0.433688 -0.087498
v -0.020117 0.492558 0.093685
v -0.020117 0.472644 -0.095778
v -0.020117 0.511601 -0.087498
v -0.020117 0.528941 0.077486
vt 0.008454 0.771640
vt 0.341598 0.702375
vt 0.341598 0.771640
vt 0.676515 0.773097
vt 0.343371 0.842361
vt 0.343371 0.773097
vt 0.341598 0.562249
vt 0.008454 0.631514
vt 0.008454 0.562250
vt 0.676515 0.632971
vt 0.343371 0.702235
vt 0.343371 0.632971
vt 0.341598 0.492186
vt 0.008454 0.561451
vt 0.008454 0.492187
vt 0.676515 0.913223
vt 0.343371 0.982487
vt 0.343371 0.913223
vt 0.676515 0.562908
vt 0.343371 0.632173
vt 0.343371 0.562908
vt 0.343371 0.912424
vt 0.676515 0.843160
vt 0.676515 0.912424
vt 0.008454 0.701577
vt 0.341598 0.632312
vt 0.341598 0.701577
vt 0.341598 0.842501
vt 0.008454 0.911766
vt 0.008454 0.842501
vt 0.008454 0.981829
vt 0.341598 0.912564
vt 0.341598 0.981829
vt 0.676515 0.703034
vt 0.343371 0.772298
vt 0.343371 0.703034
vt 0.008163 0.490535
vt 0.341306 0.421270
vt 0.341306 0.490534
vt 0.198387 0.141521
vt 0.187393 0.131623
vt 0.250257 0.021803
vt 0.014800 0.233809
vt 0.137106 0.176901
vt 0.145802 0.188869
vt 0.008454 0.841703
vt 0.341598 0.772438
vt 0.341598 0.841703
vt 0.008616 0.419584
vt 0.341760 0.350319
vt 0.341760 0.419584
vt 0.511178 0.137491
vt 0.580559 0.021803
vt 0.522172 0.147389
vt 0.457816 0.168300
vt 0.460891 0.182770
vt 0.345102 0.233809
vt 0.824880 0.012101
vt 0.839673 0.345243
vt 0.824880 0.345243
vt 0.870856 0.345243
vt 0.856063 0.012101
vt 0.870856 0.012101
vt 0.824081 0.012101
vt 0.809288 0.345243
vt 0.809289 0.012101
vt 0.746124 0.012101
vt 0.731331 0.345243
vt 0.731331 0.012101
vt 0.936136 0.011621
vt 0.919245 0.344664
vt 0.921344 0.011528
vt 0.761715 0.012101
vt 0.746922 0.345243
vt 0.746922 0.012101
vt 0.808490 0.012101
vt 0.793697 0.345243
vt 0.793697 0.012101
vt 0.919786 0.012156
vt 0.902894 0.345199
vt 0.904993 0.012063
vt 0.792898 0.012101
vt 0.778105 0.345243
vt 0.778105 0.012101
vt 0.966370 0.344491
vt 0.951577 0.011348
vt 0.966370 0.011348
vt 0.950290 0.344491
vt 0.935497 0.011348
vt 0.950290 0.011348
vt 0.762514 0.012101
vt 0.777307 0.345243
vt 0.762514 0.345243
vt 0.886448 0.345243
vt 0.871655 0.012101
vt 0.886448 0.012101
vt 0.902039 0.345243
vt 0.887246 0.012101
vt 0.902039 0.012101
vt 0.840472 0.012101
vt 0.855265 0.345243
vt 0.840472 0.345243
vt 0.008454 0.702375
vt 0.676515 0.842361
vt 0.341598 0.631514
vt 0.676515 0.702236
vt 0.341598 0.561451
vt 0.676515 0.982487
vt 0.676515 0.632173
vt 0.343371 0.843160
vt 0.008454 0.632312
vt 0.341598 0.911766
vt 0.008454 0.912564
vt 0.676515 0.772299
vt 0.008163 0.421270
vt 0.173324 0.127052
vt 0.184382 0.000399
vt 0.301730 0.068150
vt 0.329903 0.131426
vt 0.204404 0.155035
vt 0.329903 0.200691
vt 0.204404 0.169828
vt 0.198387 0.183342
vt 0.301730 0.263967
vt 0.250257 0.310314
vt 0.187393 0.193241
vt 0.184383 0.331718
vt 0.173325 0.197812
vt 0.115498 0.324478
vt 0.158613 0.196266
vt 0.055513 0.289845
vt 0.000399 0.166058
vt 0.014800 0.098308
vt 0.134031 0.162432
vt 0.137106 0.147962
vt 0.055513 0.042271
vt 0.115497 0.007639
vt 0.145802 0.135994
vt 0.158613 0.128598
vt 0.008454 0.772438
vt 0.008616 0.350319
vt 0.460891 0.153830
vt 0.330701 0.166058
vt 0.345102 0.098308
vt 0.385815 0.042271
vt 0.469586 0.141862
vt 0.445799 0.007639
vt 0.482397 0.134466
vt 0.514684 0.000399
vt 0.497109 0.132920
vt 0.632032 0.068150
vt 0.660205 0.131426
vt 0.660205 0.200691
vt 0.528188 0.160903
vt 0.528188 0.175696
vt 0.632032 0.263967
vt 0.580559 0.310314
vt 0.522172 0.189210
vt 0.514684 0.331718
vt 0.511178 0.199109
vt 0.497109 0.203680
vt 0.482397 0.202134
vt 0.445799 0.324478
vt 0.385815 0.289845
vt 0.469586 0.194737
vt 0.839673 0.012101
vt 0.856063 0.345243
vt 0.824081 0.345243
vt 0.746124 0.345243
vt 0.934038 0.344757
vt 0.761715 0.345243
vt 0.808490 0.345243
vt 0.917687 0.345292
vt 0.792898 0.345243
vt 0.951577 0.344491
vt 0.935497 0.344491
vt 0.777307 0.012101
vt 0.871655 0.345243
vt 0.887246 0.345243
vt 0.855265 0.012101
vn 0.0000 -0.2079 -0.9781
vn 0.0000 -0.5878 -0.8090
vn 0.0000 -0.8660 -0.5000
vn 0.0000 -0.9945 -0.1045
vn 0.0000 -0.9511 0.3090
vn 0.0000 -0.7431 0.6691
vn 0.0000 -0.4067 0.9135
vn 0.0000 0.0000 1.0000
vn 0.0000 0.4067 0.9135
vn 0.0000 0.7431 0.6691
vn 0.0000 0.9511 0.3090
vn 0.0000 0.9945 -0.1045
vn 0.0000 0.8660 -0.5000
vn 1.0000 0.0000 0.0000
vn 0.0000 0.5878 -0.8090
vn 0.0000 0.2079 -0.9781
vn -1.0000 -0.0000 -0.0000
vn 0.0000 0.2079 0.9781
vn 0.0000 0.5878 0.8090
vn 0.0000 0.8660 0.5000
vn 0.0000 0.9945 0.1045
vn 0.0000 0.9511 -0.3090
vn 0.0000 0.7431 -0.6691
vn 0.0000 0.4067 -0.9135
vn 0.0000 -0.0000 -1.0000
vn 0.0000 -0.4067 -0.9135
vn 0.0000 -0.7431 -0.6691
vn 0.0000 -0.9511 -0.3090
vn 0.0000 -0.9945 0.1045
vn 0.0000 -0.8660 0.5000
vn 0.0000 -0.5878 0.8090
vn 0.0000 -0.2079 0.9781
s off
f 2/1/1 3/2/1 1/3/1
f 4/4/2 5/5/2 3/6/2
f 6/7/3 7/8/3 5/9/3
f 8/10/4 9/11/4 7/12/4
f 10/13/5 11/14/5 9/15/5
f 12/16/6 13/17/6 11/18/6
f 14/19/7 15/20/7 13/21/7
f 16/22/8 17/23/8 15/24/8
f 18/25/9 19/26/9 17/27/9
f 20/28/10 21/29/10 19/30/10
f 22/31/11 23/32/11 21/33/11
f 24/34/12 25/35/12 23/36/12
f 26/37/13 27/38/13 25/39/13
f 35/40/14 33/41/14 10/42/14
f 22/43/14 41/44/14 37/45/14
f 28/46/15 29/47/15 27/48/15
f 30/49/16 1/50/16 29/51/16
f 54/52/17 21/53/17 52/54/17
f 48/55/17 47/56/17 9/57/17
f 43/58/18 58/59/18 56/60/18
f 36/61/19 56/62/19 51/63/19
f 36/64/20 49/65/20 35/66/20
f 35/67/21 47/68/21 33/69/21
f 33/70/22 48/71/22 34/72/22
f 34/73/23 50/74/23 32/75/23
f 32/76/24 46/77/24 31/78/24
f 31/79/25 57/80/25 42/81/25
f 42/82/26 60/83/26 40/84/26
f 41/85/27 60/86/27 54/87/27
f 37/88/28 54/89/28 52/90/28
f 38/91/29 52/92/29 53/93/29
f 39/94/30 53/95/30 55/96/30
f 45/97/31 55/98/31 59/99/31
f 44/100/32 59/101/32 58/102/32
f 2/1/1 4/103/1 3/2/1
f 4/4/2 6/104/2 5/5/2
f 6/7/3 8/105/3 7/8/3
f 8/10/4 10/106/4 9/11/4
f 10/13/5 12/107/5 11/14/5
f 12/16/6 14/108/6 13/17/6
f 14/19/7 16/109/7 15/20/7
f 16/22/8 18/110/8 17/23/8
f 18/25/9 20/111/9 19/26/9
f 20/28/10 22/112/10 21/29/10
f 22/31/11 24/113/11 23/32/11
f 24/34/12 26/114/12 25/35/12
f 26/37/13 28/115/13 27/38/13
f 33/41/14 34/116/14 10/42/14
f 34/116/14 12/117/14 10/42/14
f 10/42/14 8/118/14 35/40/14
f 8/118/14 6/119/14 36/120/14
f 6/119/14 4/121/14 43/122/14
f 8/118/14 36/120/14 35/40/14
f 43/122/14 36/120/14 6/119/14
f 44/123/14 43/122/14 4/121/14
f 4/121/14 2/124/14 44/123/14
f 2/124/14 30/125/14 45/126/14
f 44/123/14 2/124/14 45/126/14
f 30/125/14 28/127/14 39/128/14
f 28/127/14 26/129/14 38/130/14
f 26/129/14 24/131/14 37/45/14
f 24/131/14 22/43/14 37/45/14
f 26/129/14 37/45/14 38/130/14
f 22/43/14 20/132/14 41/44/14
f 20/132/14 18/133/14 40/134/14
f 40/134/14 18/133/14 42/135/14
f 18/133/14 16/136/14 42/135/14
f 16/136/14 14/137/14 31/138/14
f 42/135/14 16/136/14 31/138/14
f 14/137/14 12/117/14 32/139/14
f 12/117/14 34/116/14 32/139/14
f 28/127/14 38/130/14 39/128/14
f 14/137/14 32/139/14 31/138/14
f 39/128/14 45/126/14 30/125/14
f 20/132/14 40/134/14 41/44/14
f 28/46/15 30/140/15 29/47/15
f 30/49/16 2/141/16 1/50/16
f 50/142/17 48/55/17 11/143/17
f 11/143/17 13/144/17 50/142/17
f 13/144/17 15/145/17 46/146/17
f 50/142/17 13/144/17 46/146/17
f 15/145/17 17/147/17 57/148/17
f 17/147/17 19/149/17 60/150/17
f 19/149/17 21/53/17 54/52/17
f 21/53/17 23/151/17 52/54/17
f 19/149/17 54/52/17 60/150/17
f 23/151/17 25/152/17 52/54/17
f 25/152/17 27/153/17 53/154/17
f 53/154/17 27/153/17 55/155/17
f 27/153/17 29/156/17 55/155/17
f 29/156/17 1/157/17 59/158/17
f 55/155/17 29/156/17 59/158/17
f 1/157/17 3/159/17 58/160/17
f 3/159/17 56/161/17 58/160/17
f 17/147/17 60/150/17 57/148/17
f 1/157/17 58/160/17 59/158/17
f 57/148/17 46/146/17 15/145/17
f 25/152/17 53/154/17 52/54/17
f 51/162/17 56/161/17 5/163/17
f 56/161/17 3/159/17 5/163/17
f 5/163/17 7/164/17 51/162/17
f 51/162/17 7/164/17 49/165/17
f 7/164/17 9/57/17 49/165/17
f 9/57/17 11/143/17 48/55/17
f 49/165/17 9/57/17 47/56/17
f 43/58/18 44/166/18 58/59/18
f 36/61/19 43/167/19 56/62/19
f 36/64/20 51/168/20 49/65/20
f 35/67/21 49/169/21 47/68/21
f 33/70/22 47/170/22 48/71/22
f 34/73/23 48/171/23 50/74/23
f 32/76/24 50/172/24 46/77/24
f 31/79/25 46/173/25 57/80/25
f 42/82/26 57/174/26 60/83/26
f 41/85/27 40/175/27 60/86/27
f 37/88/28 41/176/28 54/89/28
f 38/91/29 37/177/29 52/92/29
f 39/94/30 38/178/30 53/95/30
f 45/97/31 39/179/31 55/98/31
f 44/100/32 45/180/32 59/101/32
