# Blender v2.91.0 OBJ File: 'pianoplatform.blend'
# www.blender.org
o Cube
v 2.250000 -0.141328 -0.780396
v 2.250000 0.141328 -0.780396
v 2.250000 -0.141328 0.780396
v 2.250000 0.141328 0.780396
v -2.250000 -0.141328 -0.780396
v -2.250000 0.141328 -0.780396
v -2.250000 -0.141328 0.780396
v -2.250000 0.141328 0.780396
v -1.967172 -0.141328 0.780396
v -1.967172 0.141328 0.780396
v 1.966503 0.141328 0.780396
v 1.966503 -0.141328 0.780396
v -1.967172 0.141328 0.112078
v 1.966503 0.141328 0.112078
v -1.967172 0.098899 0.112078
v -1.967172 0.098899 0.780396
v 1.966503 0.098899 0.780396
v 1.966503 0.098899 0.112078
v 1.966503 -0.053829 0.780396
v -1.967172 -0.053829 0.780396
vt 0.993344 0.005859
vt 0.932399 0.976132
vt 0.993344 0.976132
vt 0.328345 0.485943
vt 0.267400 0.424961
vt 0.267400 0.485943
vt 0.328901 0.415277
vt 0.267956 0.078745
vt 0.267956 0.415277
vt 0.903289 0.006201
vt 0.870358 0.854365
vt 0.903289 0.854365
vt 0.327858 0.555846
vt 0.266913 0.494719
vt 0.266913 0.555846
vt 0.648258 0.914823
vt 0.657407 0.066658
vt 0.648258 0.066658
vt 0.328901 0.562924
vt 0.267956 0.899456
vt 0.328901 0.899456
vt 0.681036 0.854365
vt 0.858798 0.006201
vt 0.681037 0.006201
vt 0.416681 0.043791
vt 0.560782 0.052939
vt 0.560782 0.043791
vt 0.416681 0.043791
vt 0.560782 0.034643
vt 0.416681 0.034643
vt 0.254440 0.913797
vt 0.254440 0.065633
vt 0.062008 0.004651
vt 0.344880 0.843425
vt 0.344880 0.894367
vt 0.625343 0.894367
vt 0.922155 0.006201
vt 0.922155 0.854365
vt 0.932399 0.005859
vt 0.328345 0.424961
vt 0.328901 0.078745
vt 0.870359 0.006201
vt 0.327858 0.494719
vt 0.657407 0.914823
vt 0.267956 0.562924
vt 0.858798 0.854365
vt 0.416681 0.052939
vt 0.560782 0.043791
vt 0.398540 0.065633
vt 0.398540 0.004651
vt 0.062008 0.974924
vt 0.398540 0.974924
vt 0.398540 0.913797
vt 0.625343 0.085749
vt 0.344880 0.085749
vt 0.344880 0.136571
vn 0.0000 0.0000 1.0000
vn 0.0000 0.0000 -1.0000
vn 1.0000 0.0000 0.0000
vn -1.0000 0.0000 0.0000
vn 0.0000 -1.0000 0.0000
vn 0.0000 1.0000 0.0000
s off
f 1/1/1 6/2/1 5/3/1
f 9/4/2 8/5/2 10/6/2
f 6/7/3 7/8/3 5/9/3
f 20/10/2 17/11/2 19/12/2
f 3/13/2 11/14/2 4/15/2
f 14/16/2 15/17/2 13/18/2
f 2/19/4 3/20/4 4/21/4
f 18/22/5 16/23/5 15/24/5
f 13/25/4 16/26/4 10/27/4
f 17/28/3 14/29/3 11/30/3
f 14/31/5 13/32/5 6/33/5
f 12/34/6 3/35/6 1/36/6
f 9/37/2 19/12/2 12/38/2
f 1/1/1 2/39/1 6/2/1
f 9/4/2 7/40/2 8/5/2
f 6/7/3 8/41/3 7/8/3
f 20/10/2 16/42/2 17/11/2
f 3/13/2 12/43/2 11/14/2
f 14/16/2 18/44/2 15/17/2
f 2/19/4 1/45/4 3/20/4
f 18/22/5 17/46/5 16/23/5
f 13/25/4 15/47/4 16/26/4
f 17/28/3 18/48/3 14/29/3
f 10/49/5 8/50/5 13/32/5
f 8/50/5 6/33/5 13/32/5
f 2/51/5 4/52/5 14/31/5
f 4/52/5 11/53/5 14/31/5
f 2/51/5 14/31/5 6/33/5
f 1/36/6 5/54/6 12/34/6
f 5/54/6 7/55/6 9/56/6
f 9/56/6 12/34/6 5/54/6
f 9/37/2 20/10/2 19/12/2
