# Blender v2.93.4 OBJ File: 'shit_fucking_building_.blend'
# www.blender.org
o Cube_Cube.001
v -5.000000 -20.000000 -5.000000
v -5.000000 20.000000 -5.000000
v 5.000000 -20.000000 -5.000000
v 5.000000 20.000000 -5.000000
v -3.000000 -12.780312 5.437572
v 3.000000 -9.143949 5.437572
v 3.000000 -5.507585 5.437572
v 1.000000 -5.507585 5.437572
v 3.000000 -1.871221 5.437572
v 1.000000 1.765142 5.437572
v 3.000000 -16.416676 5.147992
v 1.000000 -16.416676 5.147992
v -1.000000 -16.416676 5.147992
v -3.000000 -16.416676 5.147992
v 3.000000 -12.780312 5.147992
v 1.000000 -12.780312 5.147992
v -1.000000 -12.780312 5.147992
v -3.000000 -12.780312 5.147992
v 3.000000 -9.143949 5.147992
v 1.000000 -9.143949 5.147992
v -1.000000 -9.143949 5.147992
v -3.000000 -9.143949 5.147992
v 3.000000 -5.507585 5.147992
v 1.000000 -5.507585 5.147992
v -1.000000 -5.507585 5.147992
v -3.000000 -5.507585 5.147992
v 3.000000 -1.871221 5.147992
v 1.000000 -1.871221 5.147992
v -1.000000 -1.871221 5.147992
v -3.000000 -1.871221 5.147992
v 3.000000 1.765142 5.147992
v 1.000000 1.765142 5.147992
v -1.000000 1.765142 5.147992
v -3.000000 1.765142 5.147992
v 3.000000 5.401506 5.147992
v 1.000000 5.401506 5.147992
v -1.000000 5.401506 5.147992
v -3.000000 5.401506 5.147992
v 3.000000 9.037869 5.147992
v 1.000000 9.037869 5.147992
v -1.000000 9.037869 5.147992
v -3.000000 9.037869 5.147992
v 3.000000 12.674234 5.147992
v 1.000000 12.674234 5.147992
v -1.000000 12.674234 5.147992
v -3.000000 12.674234 5.147992
v 3.000000 16.310598 5.147992
v 1.000000 16.310598 5.147992
v -1.000000 16.310598 5.147992
v -3.000000 16.310598 5.147992
v 3.000000 -16.666676 5.437572
v 1.000000 -16.666676 5.437572
v -1.000000 -16.666676 5.437572
v -3.000000 -16.666676 5.437572
v 3.000000 -9.393949 5.437572
v 1.000000 -9.393949 5.437572
v -1.000000 -9.393949 5.437572
v -3.000000 -9.393949 5.437572
v 3.000000 -2.121222 5.437572
v -1.000000 -2.121222 5.437572
v -3.000000 -2.121222 5.437572
v 3.000000 5.151506 5.437572
v 1.000000 5.151506 5.437572
v -1.000000 5.151506 5.437572
v -3.000000 5.151506 5.437572
v 3.000000 12.424234 5.437572
v 1.000000 12.424234 5.437572
v -1.000000 12.424234 5.437572
v -3.000000 12.424234 5.437572
v -1.000000 -16.416676 5.657573
v -3.000000 -16.416676 5.657573
v -1.000000 -16.666676 5.657573
v -3.000000 -16.666676 5.657573
v 3.000000 -16.416676 5.687572
v 1.000000 -16.416676 5.687572
v 3.000000 -16.666676 5.687572
v 1.000000 -16.666676 5.687572
v -1.000000 -9.143949 5.687572
v -3.000000 -9.143949 5.687572
v -1.000000 -9.393949 5.687572
v -3.000000 -9.393949 5.687572
v 3.000000 -9.143949 5.687572
v 1.000000 -9.143949 5.687572
v 3.000000 -9.393949 5.687572
v 1.000000 -9.393949 5.687572
v -1.000000 -1.871221 5.687572
v -3.000000 -1.871221 5.687572
v -1.000000 -2.121222 5.687572
v -3.000000 -2.121222 5.687572
v 1.000000 -2.121222 5.437572
v 3.000000 -1.871221 5.687572
v 1.000000 -1.871221 5.687572
v 3.000000 -2.121222 5.687572
v 1.000000 -2.121222 5.687572
v -1.000000 5.401506 5.687572
v -3.000000 5.401506 5.687572
v -1.000000 5.151506 5.687572
v -3.000000 5.151506 5.687572
v 3.000000 5.401506 5.687572
v 1.000000 5.401506 5.687572
v 3.000000 5.151506 5.687572
v 1.000000 5.151506 5.687572
v 3.000000 12.674234 5.687572
v 1.000000 12.674234 5.687572
v 3.000000 12.424234 5.687572
v 1.000000 12.424234 5.687572
v -1.000000 12.674234 5.687572
v -3.000000 12.674234 5.687572
v -1.000000 12.424234 5.687572
v -3.000000 12.424234 5.687572
v 5.000000 -20.000000 5.000000
v 5.000000 20.000000 5.000000
v 3.000000 -16.416676 5.437572
v -3.000000 -9.143949 5.437572
v 1.000000 -1.871221 5.437572
v 3.000000 5.401506 5.437572
v 1.000000 5.401506 5.437572
v -1.000000 5.401506 5.437572
v -3.000000 5.401506 5.437572
v 3.000000 9.037869 5.437572
v 1.000000 9.037869 5.437572
v -1.000000 9.037869 5.437572
v -3.000000 9.037869 5.437572
v 3.000000 16.310598 5.437572
v 1.000000 16.310598 5.437572
v -1.000000 16.310598 5.437572
v 1.000000 -16.416676 5.437572
v -1.000000 -16.416676 5.437572
v -3.000000 -16.416676 5.437572
v 3.000000 -12.780312 5.437572
v 1.000000 -12.780312 5.437572
v -1.000000 -12.780312 5.437572
v 1.000000 -9.143949 5.437572
v -1.000000 -9.143949 5.437572
v -1.000000 -5.507585 5.437572
v -1.000000 -1.871221 5.437572
v 3.000000 1.765142 5.437572
v -1.000000 1.765142 5.437572
v 3.000000 12.674234 5.437572
v 1.000000 12.674234 5.437572
v -1.000000 12.674234 5.437572
v -3.000000 16.310598 5.437572
v -3.000000 -1.871221 5.437572
v -3.000000 1.765142 5.437572
v -3.000000 12.674234 5.437572
v -5.000000 20.000000 5.000000
v -5.000000 -20.000000 5.000000
v -3.000000 -5.507585 5.437572
vt 0.200000 0.799999
vt 0.000000 0.000000
vt 0.200000 0.000000
vt 0.400000 0.000000
vt 0.400000 0.799999
vt 0.600000 0.000000
vt 0.000000 0.800000
vt 0.200000 1.000000
vt 0.000000 1.000000
vt 1.000000 0.200000
vt 0.800000 0.000000
vt 1.000000 0.000000
vt 0.434579 0.800290
vt 0.444580 0.840290
vt 0.434579 0.840290
vt 0.800470 0.782206
vt 0.810470 0.854933
vt 0.800470 0.854933
vt 0.810470 0.418569
vt 0.800470 0.345842
vt 0.810470 0.345842
vt 0.384579 0.800290
vt 0.394579 0.840290
vt 0.384579 0.840290
vt 0.810470 0.564023
vt 0.800470 0.491296
vt 0.810470 0.491296
vt 0.810470 0.491296
vt 0.820470 0.564023
vt 0.810470 0.564023
vt 0.364579 0.800290
vt 0.374579 0.840290
vt 0.364579 0.840290
vt 0.404579 0.800290
vt 0.414579 0.840290
vt 0.404579 0.840290
vt 0.810470 0.273115
vt 0.800470 0.200387
vt 0.810470 0.200387
vt 0.250179 0.800290
vt 0.260179 0.840290
vt 0.250179 0.840290
vt 0.944261 0.989370
vt 0.904261 0.916643
vt 0.944261 0.916643
vt 0.943507 0.551511
vt 0.903507 0.478783
vt 0.943507 0.478783
vt 0.943507 0.769693
vt 0.903507 0.696965
vt 0.943507 0.696965
vt 0.943507 0.696965
vt 0.903507 0.624238
vt 0.943507 0.624238
vt 0.943507 0.915147
vt 0.903507 0.842420
vt 0.943507 0.842420
vt 0.943507 0.842420
vt 0.903507 0.769693
vt 0.943507 0.769693
vt 0.943507 0.478783
vt 0.903507 0.406056
vt 0.943507 0.406056
vt 0.943507 0.406056
vt 0.903507 0.333329
vt 0.943507 0.333329
vt 0.943507 0.333330
vt 0.903507 0.260603
vt 0.943507 0.260603
vt 0.943507 0.624239
vt 0.903507 0.551512
vt 0.943507 0.551512
vt 0.810470 0.564023
vt 0.820470 0.636751
vt 0.810470 0.636751
vt 0.810470 0.782206
vt 0.800470 0.709479
vt 0.810470 0.709479
vt 0.220180 0.800290
vt 0.230179 0.840290
vt 0.220180 0.840290
vt 0.820470 0.345843
vt 0.810470 0.273116
vt 0.820470 0.273116
vt 0.810470 0.200387
vt 0.820470 0.273115
vt 0.810470 0.273115
vt 0.354579 0.800290
vt 0.364580 0.840290
vt 0.354579 0.840290
vt 0.800470 0.564024
vt 0.810470 0.636752
vt 0.800470 0.636752
vt 0.810470 0.345842
vt 0.800470 0.273115
vt 0.810470 0.273115
vt 0.414579 0.800290
vt 0.424580 0.840290
vt 0.414579 0.840290
vt 0.810470 0.709479
vt 0.800470 0.636752
vt 0.810470 0.636752
vt 0.810470 0.345842
vt 0.820470 0.418569
vt 0.810470 0.418569
vt 0.310179 0.800290
vt 0.320179 0.840290
vt 0.310179 0.840290
vt 0.800470 0.418570
vt 0.810470 0.491297
vt 0.800470 0.491297
vt 0.820470 0.709478
vt 0.810470 0.636751
vt 0.820470 0.636751
vt 0.235179 0.800290
vt 0.245179 0.840290
vt 0.235179 0.840290
vt 0.265180 0.800290
vt 0.275179 0.840290
vt 0.265180 0.840290
vt 0.810470 0.418569
vt 0.820470 0.491297
vt 0.810470 0.491297
vt 0.374579 0.800290
vt 0.384580 0.840290
vt 0.374579 0.840290
vt 0.324579 0.800290
vt 0.334579 0.840290
vt 0.324579 0.840290
vt 0.830470 0.273115
vt 0.820470 0.200388
vt 0.830470 0.200388
vt 0.424579 0.800290
vt 0.434579 0.840290
vt 0.424579 0.840290
vt 0.344579 0.800290
vt 0.354579 0.840290
vt 0.344579 0.840290
vt 0.810470 0.782205
vt 0.820470 0.854933
vt 0.810470 0.854933
vt 0.295179 0.800290
vt 0.305179 0.840290
vt 0.295179 0.840290
vt 0.394579 0.800290
vt 0.404580 0.840290
vt 0.394579 0.840290
vt 0.820470 0.782205
vt 0.810470 0.709478
vt 0.820470 0.709478
vt 0.205179 0.800290
vt 0.215179 0.840290
vt 0.205179 0.840290
vt 0.280180 0.800290
vt 0.290179 0.840290
vt 0.280180 0.840290
vt 0.820470 0.273115
vt 0.830470 0.345842
vt 0.820470 0.345842
vt 0.334579 0.800290
vt 0.344580 0.840290
vt 0.334579 0.840290
vt 0.638979 0.800290
vt 0.643379 0.805289
vt 0.638979 0.805289
vt 0.499579 0.840290
vt 0.504579 0.800290
vt 0.504579 0.840290
vt 0.548979 0.840290
vt 0.544580 0.800290
vt 0.548979 0.800290
vt 0.647779 0.805289
vt 0.643379 0.800290
vt 0.647779 0.800290
vt 0.320179 0.800290
vt 0.459579 0.840290
vt 0.454579 0.800290
vt 0.459579 0.800290
vt 0.499578 0.800290
vt 0.494579 0.840290
vt 0.494579 0.800290
vt 0.628979 0.805289
vt 0.623979 0.800290
vt 0.628979 0.800290
vt 0.260180 0.800290
vt 0.618979 0.800290
vt 0.623980 0.805289
vt 0.618979 0.805289
vt 0.568979 0.800291
vt 0.573979 0.805291
vt 0.568979 0.805291
vt 0.484579 0.840290
vt 0.489579 0.800290
vt 0.489579 0.840290
vt 0.534579 0.840290
vt 0.529579 0.800290
vt 0.534579 0.800290
vt 0.245179 0.800290
vt 0.588979 0.805291
vt 0.583979 0.800291
vt 0.588979 0.800291
vt 0.474579 0.840290
vt 0.469579 0.800290
vt 0.474579 0.800290
vt 0.544580 0.800290
vt 0.539579 0.840290
vt 0.539579 0.800290
vt 0.275179 0.800290
vt 0.568979 0.805291
vt 0.563979 0.800291
vt 0.568979 0.800291
vt 0.548979 0.800291
vt 0.553979 0.805291
vt 0.548979 0.805291
vt 0.588979 0.800290
vt 0.593979 0.805290
vt 0.588979 0.805290
vt 0.449579 0.840290
vt 0.454579 0.800290
vt 0.454579 0.840290
vt 0.529579 0.840290
vt 0.524579 0.800290
vt 0.529579 0.800290
vt 0.215179 0.800290
vt 0.598979 0.805290
vt 0.593979 0.800290
vt 0.598979 0.800290
vt 0.484580 0.840290
vt 0.479579 0.800290
vt 0.484580 0.800290
vt 0.444579 0.840290
vt 0.449579 0.800290
vt 0.449579 0.840290
vt 0.603979 0.805290
vt 0.598979 0.800290
vt 0.603979 0.800290
vt 0.539579 0.840290
vt 0.534579 0.800290
vt 0.539579 0.800290
vt 0.603979 0.800290
vt 0.608979 0.805290
vt 0.603979 0.805290
vt 0.638979 0.805290
vt 0.633979 0.800290
vt 0.638979 0.800290
vt 0.504579 0.840290
vt 0.509579 0.800290
vt 0.509579 0.840290
vt 0.230179 0.800290
vt 0.524580 0.840290
vt 0.519579 0.800290
vt 0.524580 0.800290
vt 0.613979 0.800290
vt 0.618979 0.805290
vt 0.613979 0.805290
vt 0.628979 0.800290
vt 0.633979 0.805290
vt 0.628979 0.805290
vt 0.494579 0.800290
vt 0.489579 0.840290
vt 0.489579 0.800290
vt 0.613979 0.805290
vt 0.608979 0.800290
vt 0.613979 0.800290
vt 0.305179 0.800290
vt 0.469579 0.840290
vt 0.464579 0.800290
vt 0.469579 0.800290
vt 0.558980 0.805291
vt 0.553979 0.800291
vt 0.558980 0.800291
vt 0.519579 0.800290
vt 0.514579 0.840290
vt 0.514579 0.800290
vt 0.290179 0.800290
vt 0.464580 0.840290
vt 0.459579 0.800290
vt 0.464580 0.800290
vt 0.578979 0.800291
vt 0.583980 0.805291
vt 0.578979 0.805291
vt 0.200179 0.800290
vt 0.474579 0.840290
vt 0.479579 0.800290
vt 0.479579 0.840290
vt 0.514579 0.840290
vt 0.509579 0.800290
vt 0.514579 0.800290
vt 0.573979 0.800291
vt 0.578979 0.805291
vt 0.573979 0.805291
vt 0.563979 0.805291
vt 0.558979 0.800291
vt 0.563979 0.800291
vt 0.800000 0.799999
vt 0.800000 0.000000
vt 0.000000 0.799999
vt 0.600000 0.799999
vt 0.200000 0.800000
vt 0.800000 0.200000
vt 0.444580 0.800290
vt 0.810470 0.782206
vt 0.800470 0.418569
vt 0.394579 0.800290
vt 0.800470 0.564023
vt 0.820470 0.491296
vt 0.374579 0.800290
vt 0.414579 0.800290
vt 0.800470 0.273115
vt 0.260179 0.800290
vt 0.904261 0.989370
vt 0.903507 0.551511
vt 0.903507 0.769693
vt 0.903507 0.696965
vt 0.903507 0.915147
vt 0.903507 0.842420
vt 0.903507 0.478783
vt 0.903507 0.406056
vt 0.903507 0.333330
vt 0.903507 0.624239
vt 0.820470 0.564023
vt 0.800470 0.782206
vt 0.230179 0.800290
vt 0.810470 0.345843
vt 0.820470 0.200387
vt 0.364580 0.800290
vt 0.810470 0.564024
vt 0.800470 0.345842
vt 0.424580 0.800290
vt 0.800470 0.709479
vt 0.820470 0.345842
vt 0.320179 0.800290
vt 0.810470 0.418570
vt 0.810470 0.709478
vt 0.245179 0.800290
vt 0.275179 0.800290
vt 0.820470 0.418569
vt 0.384580 0.800290
vt 0.334579 0.800290
vt 0.820470 0.273115
vt 0.434579 0.800290
vt 0.354579 0.800290
vt 0.820470 0.782205
vt 0.305179 0.800290
vt 0.404580 0.800290
vt 0.810470 0.782205
vt 0.215179 0.800290
vt 0.290179 0.800290
vt 0.830470 0.273115
vt 0.344580 0.800290
vt 0.643379 0.800290
vt 0.499579 0.800290
vt 0.544580 0.840290
vt 0.643379 0.805289
vt 0.320179 0.840290
vt 0.454579 0.840290
vt 0.499578 0.840290
vt 0.623979 0.805289
vt 0.260180 0.840290
vt 0.623980 0.800290
vt 0.573979 0.800291
vt 0.484579 0.800290
vt 0.529579 0.840290
vt 0.245179 0.840290
vt 0.583979 0.805291
vt 0.469579 0.840290
vt 0.544580 0.840290
vt 0.275179 0.840290
vt 0.563979 0.805291
vt 0.553979 0.800291
vt 0.593979 0.800290
vt 0.449579 0.800290
vt 0.524579 0.840290
vt 0.215179 0.840290
vt 0.593979 0.805290
vt 0.479579 0.840290
vt 0.444579 0.800290
vt 0.598979 0.805290
vt 0.534579 0.840290
vt 0.608979 0.800290
vt 0.633979 0.805290
vt 0.504579 0.800290
vt 0.230179 0.840290
vt 0.519579 0.840290
vt 0.618979 0.800290
vt 0.633979 0.800290
vt 0.494579 0.840290
vt 0.608979 0.805290
vt 0.305179 0.840290
vt 0.464579 0.840290
vt 0.553979 0.805291
vt 0.519579 0.840290
vt 0.290179 0.840290
vt 0.459579 0.840290
vt 0.583980 0.800291
vt 0.200179 0.840290
vt 0.474579 0.800290
vt 0.509579 0.840290
vt 0.578979 0.800291
vt 0.558979 0.805291
vn 1.0000 0.0000 0.0000
vn 0.0000 0.0000 -1.0000
vn -1.0000 0.0000 0.0000
vn 0.0000 1.0000 0.0000
vn 0.0000 -1.0000 0.0000
vn 0.0000 0.0000 1.0000
s off
f 4/1/1 111/2/1 3/3/1
f 4/1/2 1/4/2 2/5/2
f 147/6/3 2/5/3 1/4/3
f 4/7/4 146/8/4 112/9/4
f 111/10/5 1/11/5 3/12/5
f 9/13/4 28/14/4 115/15/4
f 140/16/1 48/17/1 125/18/1
f 135/19/3 21/20/3 134/21/3
f 148/22/5 25/23/5 135/24/5
f 124/25/3 43/26/3 139/27/3
f 133/28/1 24/29/1 8/30/1
f 8/31/5 23/32/5 7/33/5
f 142/34/5 49/35/5 126/36/5
f 7/37/3 19/38/3 6/39/3
f 134/40/4 22/41/4 114/42/4
f 47/43/6 44/44/6 43/45/6
f 49/46/6 46/47/6 45/48/6
f 39/49/6 36/50/6 35/51/6
f 41/52/6 38/53/6 37/54/6
f 31/55/6 28/56/6 27/57/6
f 33/58/6 30/59/6 29/60/6
f 23/61/6 20/62/6 19/63/6
f 25/64/6 22/65/6 21/66/6
f 15/67/6 12/68/6 11/69/6
f 17/70/6 14/71/6 13/72/6
f 114/73/1 26/74/1 148/75/1
f 126/76/3 45/77/3 141/78/3
f 136/79/4 30/80/4 143/81/4
f 130/82/3 11/83/3 113/84/3
f 145/85/1 50/86/1 142/87/1
f 10/88/5 31/89/5 137/90/5
f 127/91/1 16/92/1 131/93/1
f 120/94/3 35/95/3 116/96/3
f 144/97/5 33/98/5 138/99/5
f 132/100/3 13/101/3 128/102/3
f 117/103/1 40/104/1 121/105/1
f 116/106/4 36/107/4 117/108/4
f 129/109/1 18/110/1 5/111/1
f 122/112/3 37/113/3 118/114/3
f 118/115/4 38/116/4 119/117/4
f 113/118/4 12/119/4 127/120/4
f 119/121/1 42/122/1 123/123/1
f 121/124/5 39/125/5 120/126/5
f 128/127/4 14/128/4 129/129/4
f 137/130/3 27/131/3 9/132/3
f 123/133/5 41/134/5 122/135/5
f 131/136/5 15/137/5 130/138/5
f 115/139/1 32/140/1 10/141/1
f 139/142/4 44/143/4 140/144/4
f 5/145/5 17/146/5 132/147/5
f 138/148/3 29/149/3 136/150/3
f 141/151/4 46/152/4 145/153/4
f 6/154/4 20/155/4 133/156/4
f 143/157/1 34/158/1 144/159/1
f 125/160/5 47/161/5 124/162/5
f 54/163/3 71/164/3 129/165/3
f 70/166/6 73/167/6 72/168/6
f 53/169/5 73/170/5 54/171/5
f 128/172/1 72/173/1 53/174/1
f 129/129/4 70/175/4 128/127/4
f 51/176/5 77/177/5 52/178/5
f 77/179/6 74/180/6 75/181/6
f 113/182/1 76/183/1 51/184/1
f 127/120/4 74/185/4 113/118/4
f 52/186/3 75/187/3 127/188/3
f 58/189/3 79/190/3 114/191/3
f 78/192/6 81/193/6 80/194/6
f 57/195/5 81/196/5 58/197/5
f 114/42/4 78/198/4 134/40/4
f 134/199/1 80/200/1 57/201/1
f 55/202/5 85/203/5 56/204/5
f 85/205/6 82/206/6 83/207/6
f 133/156/4 82/208/4 6/154/4
f 6/209/1 84/210/1 55/211/1
f 56/212/3 83/213/3 133/214/3
f 61/215/3 87/216/3 143/217/3
f 86/218/6 89/219/6 88/220/6
f 60/221/5 89/222/5 61/223/5
f 143/81/4 86/224/4 136/79/4
f 136/225/1 88/226/1 60/227/1
f 9/228/5 92/229/5 115/230/5
f 92/231/2 93/232/2 94/233/2
f 115/234/1 94/235/1 90/236/1
f 90/237/4 93/238/4 59/239/4
f 59/240/3 91/241/3 9/242/3
f 118/243/1 97/244/1 64/245/1
f 95/246/6 98/247/6 97/248/6
f 119/117/4 95/249/4 118/115/4
f 64/250/5 98/251/5 65/252/5
f 65/253/3 96/254/3 119/255/3
f 63/256/3 100/257/3 117/258/3
f 102/259/6 99/260/6 100/261/6
f 116/262/1 101/263/1 62/264/1
f 117/108/4 99/265/4 116/106/4
f 62/266/5 102/267/5 63/268/5
f 139/269/1 105/270/1 66/271/1
f 106/272/6 103/273/6 104/274/6
f 140/144/4 103/275/4 139/142/4
f 66/276/5 106/277/5 67/278/5
f 67/279/3 104/280/3 140/281/3
f 145/153/4 107/282/4 141/151/4
f 107/283/6 110/284/6 109/285/6
f 68/286/5 110/287/5 69/288/5
f 69/289/3 108/290/3 145/291/3
f 141/292/1 109/293/1 68/294/1
f 112/295/6 147/6/6 111/296/6
f 4/1/1 112/297/1 111/2/1
f 4/1/2 3/3/2 1/4/2
f 147/6/3 146/298/3 2/5/3
f 4/7/4 2/299/4 146/8/4
f 111/10/5 147/300/5 1/11/5
f 9/13/4 27/301/4 28/14/4
f 140/16/1 44/302/1 48/17/1
f 135/19/3 25/303/3 21/20/3
f 148/22/5 26/304/5 25/23/5
f 124/25/3 47/305/3 43/26/3
f 133/28/1 20/306/1 24/29/1
f 8/31/5 24/307/5 23/32/5
f 142/34/5 50/308/5 49/35/5
f 7/37/3 23/309/3 19/38/3
f 134/40/4 21/310/4 22/41/4
f 47/43/6 48/311/6 44/44/6
f 49/46/6 50/312/6 46/47/6
f 39/49/6 40/313/6 36/50/6
f 41/52/6 42/314/6 38/53/6
f 31/55/6 32/315/6 28/56/6
f 33/58/6 34/316/6 30/59/6
f 23/61/6 24/317/6 20/62/6
f 25/64/6 26/318/6 22/65/6
f 15/67/6 16/319/6 12/68/6
f 17/70/6 18/320/6 14/71/6
f 114/73/1 22/321/1 26/74/1
f 126/76/3 49/322/3 45/77/3
f 136/79/4 29/323/4 30/80/4
f 130/82/3 15/324/3 11/83/3
f 145/85/1 46/325/1 50/86/1
f 10/88/5 32/326/5 31/89/5
f 127/91/1 12/327/1 16/92/1
f 120/94/3 39/328/3 35/95/3
f 144/97/5 34/329/5 33/98/5
f 132/100/3 17/330/3 13/101/3
f 117/103/1 36/331/1 40/104/1
f 116/106/4 35/332/4 36/107/4
f 129/109/1 14/333/1 18/110/1
f 122/112/3 41/334/3 37/113/3
f 118/115/4 37/335/4 38/116/4
f 113/118/4 11/336/4 12/119/4
f 119/121/1 38/337/1 42/122/1
f 121/124/5 40/338/5 39/125/5
f 128/127/4 13/339/4 14/128/4
f 137/130/3 31/340/3 27/131/3
f 123/133/5 42/341/5 41/134/5
f 131/136/5 16/342/5 15/137/5
f 115/139/1 28/343/1 32/140/1
f 139/142/4 43/344/4 44/143/4
f 5/145/5 18/345/5 17/146/5
f 138/148/3 33/346/3 29/149/3
f 141/151/4 45/347/4 46/152/4
f 6/154/4 19/348/4 20/155/4
f 143/157/1 30/349/1 34/158/1
f 125/160/5 48/350/5 47/161/5
f 54/163/3 73/351/3 71/164/3
f 70/166/6 71/352/6 73/167/6
f 53/169/5 72/353/5 73/170/5
f 128/172/1 70/354/1 72/173/1
f 129/129/4 71/355/4 70/175/4
f 51/176/5 76/356/5 77/177/5
f 77/179/6 76/357/6 74/180/6
f 113/182/1 74/358/1 76/183/1
f 127/120/4 75/359/4 74/185/4
f 52/186/3 77/360/3 75/187/3
f 58/189/3 81/361/3 79/190/3
f 78/192/6 79/362/6 81/193/6
f 57/195/5 80/363/5 81/196/5
f 114/42/4 79/364/4 78/198/4
f 134/199/1 78/365/1 80/200/1
f 55/202/5 84/366/5 85/203/5
f 85/205/6 84/367/6 82/206/6
f 133/156/4 83/368/4 82/208/4
f 6/209/1 82/369/1 84/210/1
f 56/212/3 85/370/3 83/213/3
f 61/215/3 89/371/3 87/216/3
f 86/218/6 87/372/6 89/219/6
f 60/221/5 88/373/5 89/222/5
f 143/81/4 87/374/4 86/224/4
f 136/225/1 86/375/1 88/226/1
f 9/228/5 91/376/5 92/229/5
f 92/231/2 91/377/2 93/232/2
f 115/234/1 92/378/1 94/235/1
f 90/237/4 94/379/4 93/238/4
f 59/240/3 93/380/3 91/241/3
f 118/243/1 95/381/1 97/244/1
f 95/246/6 96/382/6 98/247/6
f 119/117/4 96/383/4 95/249/4
f 64/250/5 97/384/5 98/251/5
f 65/253/3 98/385/3 96/254/3
f 63/256/3 102/386/3 100/257/3
f 102/259/6 101/387/6 99/260/6
f 116/262/1 99/388/1 101/263/1
f 117/108/4 100/389/4 99/265/4
f 62/266/5 101/390/5 102/267/5
f 139/269/1 103/391/1 105/270/1
f 106/272/6 105/392/6 103/273/6
f 140/144/4 104/393/4 103/275/4
f 66/276/5 105/394/5 106/277/5
f 67/279/3 106/395/3 104/280/3
f 145/153/4 108/396/4 107/282/4
f 107/283/6 108/397/6 110/284/6
f 68/286/5 109/398/5 110/287/5
f 69/289/3 110/399/3 108/290/3
f 141/292/1 107/400/1 109/293/1
f 112/295/6 146/298/6 147/6/6
