# Blender v2.93.4 OBJ File: 'Slanted Stair Case.blend'
# www.blender.org
o Cube_Cube.001
v -3.877137 -0.476983 1.000000
v -3.877137 0.476983 1.000000
v -3.877137 -0.476983 -1.000000
v -3.877137 0.476983 -1.000000
v 3.877137 -0.476983 1.000000
v 3.877137 0.476983 1.000000
v 3.877137 -0.476983 -1.000000
v 3.877137 0.476983 -1.000000
v 3.877137 -0.476983 0.945782
v 3.877137 -0.476983 0.685702
v 3.877137 -0.476983 -0.686741
v 3.877137 -0.476983 -0.948137
v 3.877137 0.476983 -0.948137
v 3.877137 0.476983 -0.686741
v 3.877137 0.476983 0.685702
v 3.877137 0.476983 0.945782
v 3.560653 0.476983 -0.948137
v 3.560653 0.476983 -0.686741
v 3.560653 0.476983 0.685702
v 3.560653 0.476983 0.945782
v 3.877137 2.249849 -0.948137
v 3.877137 2.249849 -0.686741
v 3.877137 2.073829 0.685702
v 3.877137 2.249849 0.945782
v 3.560653 2.249849 -0.948137
v 3.560653 2.249849 -0.686741
v 3.560653 2.073829 0.685702
v 3.560653 2.249849 0.945782
v 3.877137 3.015833 -0.948137
v 3.877137 2.666245 -0.686741
v 3.560653 3.015833 -0.948137
v 3.560653 2.666245 -0.686741
v -3.877137 0.291437 -0.890000
v -3.877137 1.245402 -0.890000
v -3.877137 0.291437 -2.890000
v -3.877137 1.245402 -2.890000
v 3.877137 0.291437 -0.890000
v 3.877137 1.245402 -0.890000
v 3.877137 0.291437 -2.890000
v 3.877137 1.245402 -2.890000
v 3.877137 0.291437 -0.944218
v 3.877137 0.291437 -1.204298
v 3.877137 0.291437 -2.576741
v 3.877137 0.291437 -2.838137
v 3.877137 1.245402 -2.838137
v 3.877137 1.245402 -2.576741
v 3.877137 1.245402 -1.204298
v 3.877137 1.245402 -0.944218
v 3.560653 1.245402 -2.838137
v 3.560653 1.245402 -2.576741
v 3.560653 1.245402 -1.204298
v 3.560653 1.245402 -0.944218
v 3.877137 3.018269 -2.838137
v 3.877137 3.018269 -2.576741
v 3.877137 2.842248 -1.204298
v 3.877137 3.018269 -0.944218
v 3.560653 3.018269 -2.838137
v 3.560653 3.018269 -2.576741
v 3.560653 2.842248 -1.204298
v 3.560653 3.018269 -0.944218
v 3.877137 3.784252 -2.838137
v 3.877137 3.434665 -2.576741
v 3.560653 3.784252 -2.838137
v 3.560653 3.434665 -2.576741
v -3.877137 1.059856 -2.780000
v -3.877137 2.013822 -2.780000
v -3.877137 1.059856 -4.780000
v -3.877137 2.013822 -4.780000
v 3.877137 1.059856 -2.780000
v 3.877137 2.013822 -2.780000
v 3.877137 1.059856 -4.780000
v 3.877137 2.013822 -4.780000
v 3.877137 1.059856 -2.834218
v 3.877137 1.059856 -3.094298
v 3.877137 1.059856 -4.466741
v 3.877137 1.059856 -4.728137
v 3.877137 2.013822 -4.728137
v 3.877137 2.013822 -4.466741
v 3.877137 2.013822 -3.094298
v 3.877137 2.013822 -2.834218
v 3.560653 2.013822 -4.728137
v 3.560653 2.013822 -4.466741
v 3.560653 2.013822 -3.094298
v 3.560653 2.013822 -2.834218
v 3.877137 3.786688 -4.728137
v 3.877137 3.786688 -4.466741
v 3.877137 3.610668 -3.094298
v 3.877137 3.786688 -2.834218
v 3.560653 3.786688 -4.728137
v 3.560653 3.786688 -4.466741
v 3.560653 3.610668 -3.094298
v 3.560653 3.786688 -2.834218
v 3.877137 4.552672 -4.728137
v 3.877137 4.203084 -4.466741
v 3.560653 4.552672 -4.728137
v 3.560653 4.203084 -4.466741
v -3.877137 1.828275 -4.670000
v -3.877137 2.782241 -4.670000
v -3.877137 1.828275 -6.670000
v -3.877137 2.782241 -6.670000
v 3.877137 1.828275 -4.670000
v 3.877137 2.782241 -4.670000
v 3.877137 1.828275 -6.670000
v 3.877137 2.782241 -6.670000
v 3.877137 1.828275 -4.724218
v 3.877137 1.828275 -4.984299
v 3.877137 1.828275 -6.356740
v 3.877137 1.828275 -6.618137
v 3.877137 2.782241 -6.618137
v 3.877137 2.782241 -6.356740
v 3.877137 2.782241 -4.984299
v 3.877137 2.782241 -4.724218
v 3.560653 2.782241 -6.618137
v 3.560653 2.782241 -6.356740
v 3.560653 2.782241 -4.984299
v 3.560653 2.782241 -4.724218
v 3.877137 4.555107 -6.618137
v 3.877137 4.555107 -6.356740
v 3.877137 4.379087 -4.984299
v 3.877137 4.555107 -4.724218
v 3.560653 4.555107 -6.618137
v 3.560653 4.555107 -6.356740
v 3.560653 4.379087 -4.984299
v 3.560653 4.555107 -4.724218
v 3.877137 5.321091 -6.618137
v 3.877137 4.971504 -6.356740
v 3.560653 5.321091 -6.618137
v 3.560653 4.971504 -6.356740
vt 0.348303 0.019397
vt 0.367489 0.474937
vt 0.264246 0.019397
vt 0.365438 0.873073
vt 0.368758 0.931500
vt 0.365438 0.931500
vt 0.844663 0.000013
vt 0.903091 0.474937
vt 0.844663 0.474937
vt 0.193749 0.480628
vt 0.241089 0.865426
vt 0.193749 0.865426
vt 0.707857 0.000013
vt 0.726437 0.474937
vt 0.608210 0.474937
vt 0.961813 0.280521
vt 0.943730 0.381819
vt 0.943730 0.280521
vt 0.991893 0.474924
vt 0.972509 0.583506
vt 0.972509 0.474924
vt 0.246265 0.873073
vt 0.249441 0.931500
vt 0.246265 0.931500
vt 0.249441 0.873073
vt 0.265451 0.931500
vt 0.265451 0.873073
vt 0.349509 0.931500
vt 0.349509 0.873073
vt 0.435098 0.732123
vt 0.493525 0.854616
vt 0.435098 0.854616
vt 0.961813 0.381819
vt 0.943730 0.405611
vt 0.562531 0.922155
vt 0.546602 0.902771
vt 0.562531 0.902771
vt 0.656209 0.844344
vt 0.672138 0.746542
vt 0.672138 0.844344
vt 0.756195 0.844344
vt 0.772205 0.735762
vt 0.772205 0.844344
vt 0.882589 0.662647
vt 0.866660 0.564845
vt 0.882589 0.554065
vt 0.979896 0.367248
vt 0.961813 0.458489
vt 0.961813 0.367248
vt 0.766592 0.662647
vt 0.782602 0.554065
vt 0.782602 0.662647
vt 0.943730 0.280521
vt 0.925646 0.381819
vt 0.925646 0.280521
vt 0.943730 0.425585
vt 0.961813 0.405611
vt 0.961813 0.425585
vt 0.943730 0.381819
vt 0.925646 0.425585
vt 0.756195 0.710259
vt 0.772205 0.688848
vt 0.766592 0.554065
vt 0.782602 0.528562
vt 0.946629 0.968574
vt 0.966012 0.844344
vt 0.966012 0.968574
vt 0.527218 0.993394
vt 0.546602 0.902771
vt 0.546602 0.993394
vt 0.766592 0.507151
vt 0.656209 0.735762
vt 0.225810 0.019397
vt 0.244996 0.474937
vt 0.141752 0.019397
vt 0.242944 0.873073
vt 0.246265 0.931500
vt 0.242944 0.931500
vt 0.288429 0.480628
vt 0.335768 0.865426
vt 0.288429 0.865426
vt 0.241089 0.480628
vt 0.288429 0.865426
vt 0.241089 0.865426
vt 0.826084 0.000013
vt 0.844663 0.474937
vt 0.726437 0.474937
vt 0.966012 0.688848
vt 0.946629 0.797430
vt 0.946629 0.688848
vt 0.985396 0.813078
vt 0.966012 0.921660
vt 0.966012 0.813078
vt 0.123771 0.873073
vt 0.126948 0.931500
vt 0.123771 0.931500
vt 0.126948 0.873073
vt 0.142957 0.931500
vt 0.142957 0.873073
vt 0.227015 0.931500
vt 0.227015 0.873073
vt 0.434544 0.480186
vt 0.492971 0.602680
vt 0.434544 0.602680
vt 0.966012 0.797430
vt 0.946629 0.822933
vt 0.562531 0.902771
vt 0.578460 0.922155
vt 0.562531 0.922155
vt 0.772205 0.999840
vt 0.788134 0.902039
vt 0.788134 0.999840
vt 0.872192 0.999840
vt 0.888201 0.891258
vt 0.888201 0.999840
vt 0.760095 0.662647
vt 0.744166 0.564846
vt 0.760095 0.554065
vt 0.991893 0.583506
vt 0.972509 0.681308
vt 0.972509 0.583506
vt 0.644099 0.662647
vt 0.660108 0.554065
vt 0.660108 0.662647
vt 0.925646 0.280521
vt 0.907563 0.381819
vt 0.907563 0.280521
vt 0.946629 0.844344
vt 0.966012 0.822933
vt 0.966012 0.844344
vt 0.925646 0.381819
vt 0.907563 0.425586
vt 0.872192 0.865755
vt 0.888201 0.844344
vt 0.644099 0.554065
vt 0.660108 0.528562
vt 0.966012 0.813078
vt 0.985396 0.688848
vt 0.985396 0.813078
vt 0.933465 0.688040
vt 0.952849 0.597418
vt 0.952849 0.688040
vt 0.644099 0.507151
vt 0.772205 0.891258
vt 0.470797 0.019397
vt 0.489983 0.474937
vt 0.386739 0.019397
vt 0.120108 0.940469
vt 0.123429 0.998897
vt 0.120108 0.998897
vt 0.099070 0.480628
vt 0.146410 0.865426
vt 0.099070 0.865426
vt 0.146410 0.480628
vt 0.193749 0.865426
vt 0.146410 0.865426
vt 0.084016 0.480628
vt 0.099070 0.865426
vt 0.003279 0.865426
vt 0.925646 0.135456
vt 0.907563 0.236754
vt 0.907563 0.135456
vt 0.997980 0.135456
vt 0.979896 0.236754
vt 0.979896 0.135456
vt 0.000935 0.940469
vt 0.004112 0.998897
vt 0.000935 0.998897
vt 0.004112 0.940469
vt 0.020121 0.998897
vt 0.020121 0.940469
vt 0.104179 0.998897
vt 0.104179 0.940469
vt 0.435098 0.854616
vt 0.493525 0.977110
vt 0.435098 0.977110
vt 0.925646 0.236754
vt 0.907563 0.260546
vt 0.922424 0.443669
vt 0.907563 0.425586
vt 0.922424 0.425586
vt 0.772205 0.844344
vt 0.788134 0.746543
vt 0.788134 0.844344
vt 0.872192 0.844344
vt 0.888201 0.735762
vt 0.888201 0.844344
vt 0.646391 0.844344
vt 0.630462 0.746543
vt 0.646391 0.735762
vt 0.997980 0.327994
vt 0.979896 0.419235
vt 0.979896 0.327994
vt 0.530394 0.844344
vt 0.546404 0.735762
vt 0.546404 0.844344
vt 0.961813 0.135456
vt 0.943730 0.236754
vt 0.943730 0.135456
vt 0.907563 0.280521
vt 0.925646 0.260546
vt 0.925646 0.280521
vt 0.961813 0.236754
vt 0.943730 0.280521
vt 0.872192 0.710259
vt 0.888201 0.688848
vt 0.530394 0.735762
vt 0.546404 0.710259
vt 0.961813 0.367248
vt 0.979896 0.251352
vt 0.979896 0.367248
vt 0.914082 0.688040
vt 0.933466 0.597418
vt 0.933466 0.688040
vt 0.530394 0.688848
vt 0.772205 0.735762
vt 0.103316 0.019397
vt 0.122503 0.474937
vt 0.019259 0.019397
vt 0.120451 0.873072
vt 0.123772 0.931500
vt 0.120451 0.931500
vt 0.335768 0.480628
vt 0.383108 0.865426
vt 0.335768 0.865426
vt 0.383108 0.480628
vt 0.430448 0.865426
vt 0.383108 0.865426
vt 0.589631 0.000013
vt 0.608210 0.474937
vt 0.489983 0.474937
vt 0.943730 0.135456
vt 0.925646 0.236754
vt 0.925646 0.135456
vt 0.960740 0.007363
vt 0.941356 0.115946
vt 0.941356 0.007363
vt 0.001278 0.873072
vt 0.004454 0.931500
vt 0.001278 0.931500
vt 0.004454 0.873072
vt 0.020464 0.931500
vt 0.020464 0.873072
vt 0.104522 0.931500
vt 0.104522 0.873072
vt 0.434573 0.606516
vt 0.493000 0.729010
vt 0.434573 0.729010
vt 0.943730 0.236754
vt 0.925646 0.260546
vt 0.922424 0.461752
vt 0.907563 0.443669
vt 0.922424 0.443669
vt 0.656209 0.999840
vt 0.672138 0.902039
vt 0.672138 0.999840
vt 0.756195 0.999840
vt 0.772205 0.891258
vt 0.772205 0.999840
vt 0.637602 0.662647
vt 0.621673 0.564846
vt 0.637602 0.554065
vt 0.997980 0.236754
vt 0.979896 0.327994
vt 0.979896 0.236754
vt 0.521605 0.662647
vt 0.537615 0.554065
vt 0.537615 0.662647
vt 0.972509 0.474924
vt 0.953126 0.583506
vt 0.953126 0.474924
vt 0.925646 0.280521
vt 0.943730 0.260546
vt 0.943730 0.280521
vt 0.972509 0.583506
vt 0.953126 0.630420
vt 0.756195 0.865755
vt 0.772205 0.844344
vt 0.521605 0.554065
vt 0.537615 0.528562
vt 0.961813 0.251352
vt 0.979896 0.135455
vt 0.979896 0.251352
vt 0.894699 0.688040
vt 0.914082 0.597418
vt 0.914082 0.688040
vt 0.521605 0.507151
vt 0.656209 0.891258
vt 0.364313 0.019397
vt 0.364313 0.000013
vt 0.367489 0.000013
vt 0.244996 0.474937
vt 0.244996 0.000013
vt 0.248317 0.019397
vt 0.248317 0.000013
vt 0.264246 0.000013
vt 0.348303 0.000013
vt 0.368758 0.873073
vt 0.903091 0.000013
vt 0.241089 0.480628
vt 0.608210 0.000013
vt 0.611276 0.000013
vt 0.626728 0.000013
vt 0.723232 0.000013
vt 0.726437 0.000013
vt 0.991893 0.583506
vt 0.493525 0.732123
vt 0.546602 0.922155
vt 0.756195 0.735762
vt 0.866660 0.662647
vt 0.979896 0.458489
vt 0.946629 0.844344
vt 0.527218 0.902771
vt 0.241820 0.019397
vt 0.241820 0.000013
vt 0.244996 0.000013
vt 0.122503 0.474937
vt 0.122503 0.000013
vt 0.125823 0.019397
vt 0.125823 0.000013
vt 0.141752 0.000013
vt 0.225810 0.000013
vt 0.246265 0.873073
vt 0.335768 0.480628
vt 0.288429 0.480628
vt 0.726437 0.000013
vt 0.729502 0.000013
vt 0.744954 0.000013
vt 0.841458 0.000013
vt 0.844663 0.000013
vt 0.985396 0.921660
vt 0.492971 0.480186
vt 0.578460 0.902771
vt 0.872192 0.891258
vt 0.744166 0.662647
vt 0.991893 0.681308
vt 0.925646 0.425586
vt 0.966012 0.688848
vt 0.933465 0.597418
vt 0.486807 0.019397
vt 0.486807 0.000013
vt 0.489983 0.000013
vt 0.367489 0.474937
vt 0.367489 0.000013
vt 0.370810 0.019397
vt 0.370810 0.000013
vt 0.386739 0.000013
vt 0.470797 0.000013
vt 0.123429 0.940469
vt 0.146410 0.480628
vt 0.193749 0.480628
vt 0.003279 0.480628
vt 0.005763 0.480628
vt 0.018283 0.480628
vt 0.096473 0.480628
vt 0.099070 0.480628
vt 0.997980 0.236754
vt 0.493525 0.854616
vt 0.907563 0.443669
vt 0.872192 0.735762
vt 0.630462 0.844344
vt 0.997980 0.419235
vt 0.961813 0.280521
vt 0.961813 0.251352
vt 0.914082 0.597418
vt 0.119326 0.019397
vt 0.119326 0.000013
vt 0.122503 0.000013
vt 0.000009 0.474937
vt 0.000009 0.000013
vt 0.003330 0.019397
vt 0.003330 0.000013
vt 0.019259 0.000013
vt 0.103316 0.000013
vt 0.123772 0.873072
vt 0.383108 0.480628
vt 0.430448 0.480628
vt 0.489983 0.000013
vt 0.493049 0.000013
vt 0.508501 0.000013
vt 0.605005 0.000013
vt 0.608210 0.000013
vt 0.960740 0.115946
vt 0.493000 0.606516
vt 0.907563 0.461752
vt 0.756195 0.891258
vt 0.621673 0.662647
vt 0.997980 0.327994
vt 0.972509 0.630420
vt 0.961813 0.135455
vt 0.894699 0.597418
vn 0.0000 1.0000 0.0000
vn 1.0000 0.0000 0.0000
vn 0.0000 0.0000 1.0000
vn 0.0000 0.0000 -1.0000
vn 0.0000 -1.0000 0.0000
vn -1.0000 0.0000 0.0000
vn 0.0000 0.8282 -0.5605
vn 0.0000 0.5988 0.8009
vn 0.0000 -0.9270 -0.3749
vn 0.0000 -0.9181 -0.3963
s off
f 18/1/1 4/2/1 19/3/1
f 16/4/2 5/5/2 9/6/2
f 2/7/3 5/8/3 6/9/3
f 8/10/4 3/11/4 4/12/4
f 10/13/5 1/14/5 3/15/5
f 14/16/3 26/17/3 18/18/3
f 16/19/3 28/20/3 20/21/3
f 8/22/2 12/23/2 7/24/2
f 13/25/2 11/26/2 12/23/2
f 14/27/2 10/28/2 11/26/2
f 15/29/2 9/6/2 10/28/2
f 4/30/6 1/31/6 2/32/6
f 22/33/3 32/34/3 26/17/3
f 27/35/7 24/36/7 23/37/7
f 20/38/6 27/39/6 19/40/6
f 18/41/6 25/42/6 17/43/6
f 16/44/2 23/45/2 24/46/2
f 19/47/4 23/48/4 15/49/4
f 13/50/2 22/51/2 14/52/2
f 17/53/4 21/54/4 13/55/4
f 31/56/8 30/57/8 29/58/8
f 25/59/4 29/60/4 21/54/4
f 25/42/6 32/61/6 31/62/6
f 21/63/2 30/64/2 22/51/2
f 29/65/9 28/66/9 31/67/9
f 30/68/10 27/69/10 32/70/10
f 24/46/2 30/64/2 29/71/2
f 28/72/6 32/61/6 27/39/6
f 50/73/1 36/74/1 51/75/1
f 48/76/2 37/77/2 41/78/2
f 34/79/3 37/80/3 38/81/3
f 40/82/4 35/83/4 36/84/4
f 42/85/5 33/86/5 35/87/5
f 46/88/3 58/89/3 50/90/3
f 48/91/3 60/92/3 52/93/3
f 40/94/2 44/95/2 39/96/2
f 45/97/2 43/98/2 44/95/2
f 46/99/2 42/100/2 43/98/2
f 47/101/2 41/78/2 42/100/2
f 36/102/6 33/103/6 34/104/6
f 54/105/3 64/106/3 58/89/3
f 59/107/7 56/108/7 55/109/7
f 52/110/6 59/111/6 51/112/6
f 50/113/6 57/114/6 49/115/6
f 48/116/2 55/117/2 56/118/2
f 51/119/4 55/120/4 47/121/4
f 45/122/2 54/123/2 46/124/2
f 49/125/4 53/126/4 45/127/4
f 63/128/8 62/129/8 61/130/8
f 57/131/4 61/132/4 53/126/4
f 57/114/6 64/133/6 63/134/6
f 53/135/2 62/136/2 54/123/2
f 61/137/9 60/138/9 63/139/9
f 62/140/10 59/141/10 64/142/10
f 56/118/2 62/136/2 61/143/2
f 60/144/6 64/133/6 59/111/6
f 82/145/1 68/146/1 83/147/1
f 80/148/2 69/149/2 73/150/2
f 66/151/3 69/152/3 70/153/3
f 72/154/4 67/155/4 68/156/4
f 74/157/5 65/158/5 67/159/5
f 78/160/3 90/161/3 82/162/3
f 80/163/3 92/164/3 84/165/3
f 72/166/2 76/167/2 71/168/2
f 77/169/2 75/170/2 76/167/2
f 78/171/2 74/172/2 75/170/2
f 79/173/2 73/150/2 74/172/2
f 68/174/6 65/175/6 66/176/6
f 86/177/3 96/178/3 90/161/3
f 91/179/7 88/180/7 87/181/7
f 84/182/6 91/183/6 83/184/6
f 82/185/6 89/186/6 81/187/6
f 80/188/2 87/189/2 88/190/2
f 83/191/4 87/192/4 79/193/4
f 77/194/2 86/195/2 78/196/2
f 81/197/4 85/198/4 77/199/4
f 95/200/8 94/201/8 93/202/8
f 89/203/4 93/204/4 85/198/4
f 89/186/6 96/205/6 95/206/6
f 85/207/2 94/208/2 86/195/2
f 93/209/9 92/210/9 95/211/9
f 94/212/10 91/213/10 96/214/10
f 88/190/2 94/208/2 93/215/2
f 92/216/6 96/205/6 91/183/6
f 114/217/1 100/218/1 115/219/1
f 112/220/2 101/221/2 105/222/2
f 98/223/3 101/224/3 102/225/3
f 104/226/4 99/227/4 100/228/4
f 106/229/5 97/230/5 99/231/5
f 110/232/3 122/233/3 114/234/3
f 112/235/3 124/236/3 116/237/3
f 104/238/2 108/239/2 103/240/2
f 109/241/2 107/242/2 108/239/2
f 110/243/2 106/244/2 107/242/2
f 111/245/2 105/222/2 106/244/2
f 100/246/6 97/247/6 98/248/6
f 118/249/3 128/250/3 122/233/3
f 123/251/7 120/252/7 119/253/7
f 116/254/6 123/255/6 115/256/6
f 114/257/6 121/258/6 113/259/6
f 112/260/2 119/261/2 120/262/2
f 115/263/4 119/264/4 111/265/4
f 109/266/2 118/267/2 110/268/2
f 113/269/4 117/270/4 109/271/4
f 127/272/8 126/273/8 125/274/8
f 121/275/4 125/276/4 117/270/4
f 121/258/6 128/277/6 127/278/6
f 117/279/2 126/280/2 118/267/2
f 125/281/9 124/282/9 127/283/9
f 126/284/10 123/285/10 128/286/10
f 120/262/2 126/280/2 125/287/2
f 124/288/6 128/277/6 123/255/6
f 17/289/1 13/290/1 8/291/1
f 2/292/1 6/293/1 20/294/1
f 6/293/1 16/295/1 20/294/1
f 17/289/1 8/291/1 4/2/1
f 15/296/1 14/297/1 18/1/1
f 18/1/1 17/289/1 4/2/1
f 4/2/1 2/292/1 19/3/1
f 2/292/1 20/294/1 19/3/1
f 19/3/1 15/296/1 18/1/1
f 16/4/2 6/298/2 5/5/2
f 2/7/3 1/299/3 5/8/3
f 8/10/4 7/300/4 3/11/4
f 7/301/5 12/302/5 3/15/5
f 12/302/5 11/303/5 3/15/5
f 10/13/5 9/304/5 1/14/5
f 9/304/5 5/305/5 1/14/5
f 3/15/5 11/303/5 10/13/5
f 14/16/3 22/33/3 26/17/3
f 16/19/3 24/306/3 28/20/3
f 8/22/2 13/25/2 12/23/2
f 13/25/2 14/27/2 11/26/2
f 14/27/2 15/29/2 10/28/2
f 15/29/2 16/4/2 9/6/2
f 4/30/6 3/307/6 1/31/6
f 22/33/3 30/57/3 32/34/3
f 27/35/7 28/308/7 24/36/7
f 20/38/6 28/72/6 27/39/6
f 18/41/6 26/309/6 25/42/6
f 16/44/2 15/310/2 23/45/2
f 19/47/4 27/311/4 23/48/4
f 13/50/2 21/63/2 22/51/2
f 17/53/4 25/59/4 21/54/4
f 31/56/8 32/34/8 30/57/8
f 25/59/4 31/56/4 29/60/4
f 25/42/6 26/309/6 32/61/6
f 21/63/2 29/71/2 30/64/2
f 29/65/9 24/312/9 28/66/9
f 30/68/10 23/313/10 27/69/10
f 24/46/2 23/45/2 30/64/2
f 28/72/6 31/62/6 32/61/6
f 49/314/1 45/315/1 40/316/1
f 34/317/1 38/318/1 52/319/1
f 38/318/1 48/320/1 52/319/1
f 49/314/1 40/316/1 36/74/1
f 47/321/1 46/322/1 50/73/1
f 50/73/1 49/314/1 36/74/1
f 36/74/1 34/317/1 51/75/1
f 34/317/1 52/319/1 51/75/1
f 51/75/1 47/321/1 50/73/1
f 48/76/2 38/323/2 37/77/2
f 34/79/3 33/324/3 37/80/3
f 40/82/4 39/325/4 35/83/4
f 39/326/5 44/327/5 35/87/5
f 44/327/5 43/328/5 35/87/5
f 42/85/5 41/329/5 33/86/5
f 41/329/5 37/330/5 33/86/5
f 35/87/5 43/328/5 42/85/5
f 46/88/3 54/105/3 58/89/3
f 48/91/3 56/331/3 60/92/3
f 40/94/2 45/97/2 44/95/2
f 45/97/2 46/99/2 43/98/2
f 46/99/2 47/101/2 42/100/2
f 47/101/2 48/76/2 41/78/2
f 36/102/6 35/332/6 33/103/6
f 54/105/3 62/129/3 64/106/3
f 59/107/7 60/333/7 56/108/7
f 52/110/6 60/144/6 59/111/6
f 50/113/6 58/334/6 57/114/6
f 48/116/2 47/335/2 55/117/2
f 51/119/4 59/336/4 55/120/4
f 45/122/2 53/135/2 54/123/2
f 49/125/4 57/131/4 53/126/4
f 63/128/8 64/106/8 62/129/8
f 57/131/4 63/337/4 61/132/4
f 57/114/6 58/334/6 64/133/6
f 53/135/2 61/143/2 62/136/2
f 61/137/9 56/338/9 60/138/9
f 62/140/10 55/339/10 59/141/10
f 56/118/2 55/117/2 62/136/2
f 60/144/6 63/134/6 64/133/6
f 81/340/1 77/341/1 72/342/1
f 66/343/1 70/344/1 84/345/1
f 70/344/1 80/346/1 84/345/1
f 81/340/1 72/342/1 68/146/1
f 79/347/1 78/348/1 82/145/1
f 82/145/1 81/340/1 68/146/1
f 68/146/1 66/343/1 83/147/1
f 66/343/1 84/345/1 83/147/1
f 83/147/1 79/347/1 82/145/1
f 80/148/2 70/349/2 69/149/2
f 66/151/3 65/350/3 69/152/3
f 72/154/4 71/351/4 67/155/4
f 71/352/5 76/353/5 67/159/5
f 76/353/5 75/354/5 67/159/5
f 74/157/5 73/355/5 65/158/5
f 73/355/5 69/356/5 65/158/5
f 67/159/5 75/354/5 74/157/5
f 78/160/3 86/177/3 90/161/3
f 80/163/3 88/357/3 92/164/3
f 72/166/2 77/169/2 76/167/2
f 77/169/2 78/171/2 75/170/2
f 78/171/2 79/173/2 74/172/2
f 79/173/2 80/148/2 73/150/2
f 68/174/6 67/358/6 65/175/6
f 86/177/3 94/201/3 96/178/3
f 91/179/7 92/359/7 88/180/7
f 84/182/6 92/216/6 91/183/6
f 82/185/6 90/360/6 89/186/6
f 80/188/2 79/361/2 87/189/2
f 83/191/4 91/362/4 87/192/4
f 77/194/2 85/207/2 86/195/2
f 81/197/4 89/203/4 85/198/4
f 95/200/8 96/178/8 94/201/8
f 89/203/4 95/363/4 93/204/4
f 89/186/6 90/360/6 96/205/6
f 85/207/2 93/215/2 94/208/2
f 93/209/9 88/364/9 92/210/9
f 94/212/10 87/365/10 91/213/10
f 88/190/2 87/189/2 94/208/2
f 92/216/6 95/206/6 96/205/6
f 113/366/1 109/367/1 104/368/1
f 98/369/1 102/370/1 116/371/1
f 102/370/1 112/372/1 116/371/1
f 113/366/1 104/368/1 100/218/1
f 111/373/1 110/374/1 114/217/1
f 114/217/1 113/366/1 100/218/1
f 100/218/1 98/369/1 115/219/1
f 98/369/1 116/371/1 115/219/1
f 115/219/1 111/373/1 114/217/1
f 112/220/2 102/375/2 101/221/2
f 98/223/3 97/376/3 101/224/3
f 104/226/4 103/377/4 99/227/4
f 103/378/5 108/379/5 99/231/5
f 108/379/5 107/380/5 99/231/5
f 106/229/5 105/381/5 97/230/5
f 105/381/5 101/382/5 97/230/5
f 99/231/5 107/380/5 106/229/5
f 110/232/3 118/249/3 122/233/3
f 112/235/3 120/383/3 124/236/3
f 104/238/2 109/241/2 108/239/2
f 109/241/2 110/243/2 107/242/2
f 110/243/2 111/245/2 106/244/2
f 111/245/2 112/220/2 105/222/2
f 100/246/6 99/384/6 97/247/6
f 118/249/3 126/273/3 128/250/3
f 123/251/7 124/385/7 120/252/7
f 116/254/6 124/288/6 123/255/6
f 114/257/6 122/386/6 121/258/6
f 112/260/2 111/387/2 119/261/2
f 115/263/4 123/388/4 119/264/4
f 109/266/2 117/279/2 118/267/2
f 113/269/4 121/275/4 117/270/4
f 127/272/8 128/250/8 126/273/8
f 121/275/4 127/389/4 125/276/4
f 121/258/6 122/386/6 128/277/6
f 117/279/2 125/287/2 126/280/2
f 125/281/9 120/390/9 124/282/9
f 126/284/10 119/391/10 123/285/10
f 120/262/2 119/261/2 126/280/2
f 124/288/6 127/278/6 128/277/6
