# Blender v2.93.4 OBJ File: 'StairCaseR.blend'
# www.blender.org
o Cube.001_Cube.002
v 3.877137 -0.476983 -1.000001
v 3.877137 0.476983 -1.000001
v 3.877138 -0.476983 0.999999
v 3.877138 0.476983 0.999999
v -3.877138 -0.476983 -0.999999
v -3.877138 0.476983 -0.999999
v -3.877137 -0.476983 1.000001
v -3.877137 0.476983 1.000001
v -3.877138 -0.476983 -0.945781
v -3.877138 -0.476983 -0.685700
v -3.877137 -0.476983 0.686742
v -3.877137 -0.476983 0.948138
v -3.877137 0.476983 0.948138
v -3.877137 0.476983 0.686742
v -3.877138 0.476983 -0.685700
v -3.877138 0.476983 -0.945781
v -3.560653 0.476983 0.948138
v -3.560653 0.476983 0.686742
v -3.560653 0.476983 -0.685700
v -3.560653 0.476983 -0.945781
v -3.877137 2.209611 0.948138
v -3.877137 2.209611 0.686742
v -3.877138 2.002862 -0.685700
v -3.877138 2.209611 -0.945781
v -3.560653 2.209611 0.948138
v -3.560653 2.209611 0.686742
v -3.560653 2.002862 -0.685700
v -3.560653 2.209611 -0.945781
v -3.877137 2.990606 0.948138
v -3.877137 2.597698 0.686742
v -3.560653 2.990606 0.948138
v -3.560653 2.597698 0.686742
v 3.877138 0.303225 0.889999
v 3.877138 1.257190 0.889999
v 3.877138 0.303225 2.889999
v 3.877138 1.257190 2.889999
v -3.877137 0.303225 0.890001
v -3.877137 1.257190 0.890001
v -3.877136 0.303225 2.890001
v -3.877136 1.257190 2.890001
v -3.877137 0.303225 0.944219
v -3.877137 0.303225 1.204300
v -3.877136 0.303225 2.576742
v -3.877136 0.303225 2.838138
v -3.877136 1.257190 2.838138
v -3.877136 1.257190 2.576742
v -3.877137 1.257190 1.204300
v -3.877137 1.257190 0.944219
v -3.560652 1.257190 2.838138
v -3.560652 1.257190 2.576742
v -3.560652 1.257190 1.204300
v -3.560653 1.257190 0.944219
v -3.877136 2.989818 2.838138
v -3.877136 2.989818 2.576742
v -3.877137 2.783069 1.204300
v -3.877137 2.989818 0.944219
v -3.560652 2.989818 2.838138
v -3.560652 2.989818 2.576742
v -3.560652 2.783069 1.204300
v -3.560653 2.989818 0.944219
v -3.877136 3.770813 2.838138
v -3.877136 3.377906 2.576742
v -3.560652 3.770813 2.838138
v -3.560652 3.377906 2.576742
v 3.877138 1.083432 2.779999
v 3.877138 2.037398 2.779999
v 3.877139 1.083432 4.779998
v 3.877139 2.037398 4.779998
v -3.877136 1.083432 2.780001
v -3.877136 2.037398 2.780001
v -3.877136 1.083432 4.780001
v -3.877136 2.037398 4.780001
v -3.877136 1.083432 2.834219
v -3.877136 1.083432 3.094300
v -3.877136 1.083432 4.466742
v -3.877136 1.083432 4.728138
v -3.877136 2.037398 4.728138
v -3.877136 2.037398 4.466742
v -3.877136 2.037398 3.094300
v -3.877136 2.037398 2.834219
v -3.560652 2.037398 4.728138
v -3.560652 2.037398 4.466742
v -3.560652 2.037398 3.094300
v -3.560652 2.037398 2.834219
v -3.877136 3.770025 4.728138
v -3.877136 3.770025 4.466742
v -3.877136 3.563277 3.094300
v -3.877136 3.770025 2.834219
v -3.560652 3.770025 4.728138
v -3.560652 3.770025 4.466742
v -3.560652 3.563277 3.094300
v -3.560652 3.770025 2.834219
v -3.877136 4.551021 4.728138
v -3.877136 4.158113 4.466742
v -3.560652 4.551021 4.728138
v -3.560652 4.158113 4.466742
v 3.877139 1.863639 4.669999
v 3.877139 2.817605 4.669999
v 3.877140 1.863639 6.669999
v 3.877140 2.817605 6.669999
v -3.877136 1.863639 4.670002
v -3.877136 2.817605 4.670002
v -3.877135 1.863639 6.670002
v -3.877135 2.817605 6.670002
v -3.877136 1.863639 4.724219
v -3.877136 1.863639 4.984300
v -3.877135 1.863639 6.356742
v -3.877135 1.863639 6.618139
v -3.877135 2.817605 6.618139
v -3.877135 2.817605 6.356742
v -3.877136 2.817605 4.984300
v -3.877136 2.817605 4.724219
v -3.560651 2.817605 6.618138
v -3.560651 2.817605 6.356741
v -3.560651 2.817605 4.984300
v -3.560652 2.817605 4.724219
v -3.877135 4.550232 6.618139
v -3.877135 4.550232 6.356742
v -3.877136 4.343484 4.984300
v -3.877136 4.550232 4.724219
v -3.560651 4.550232 6.618138
v -3.560651 4.550232 6.356741
v -3.560651 4.343484 4.984300
v -3.560652 4.550232 4.724219
v -3.877135 5.331228 6.618139
v -3.877135 4.938321 6.356742
v -3.560651 5.331228 6.618138
v -3.560651 4.938321 6.356741
vt 0.244954 0.850638
vt 0.248291 0.909347
vt 0.244954 0.909347
vt 0.844508 0.000000
vt 0.903217 0.477212
vt 0.844508 0.477212
vt 0.095460 0.484651
vt 0.139926 0.846094
vt 0.095460 0.846094
vt 0.742928 0.477212
vt 0.727256 0.477212
vt 0.723989 0.000000
vt 0.241475 0.477212
vt 0.139711 0.019477
vt 0.222564 0.019477
vt 0.125207 0.850638
vt 0.128399 0.909347
vt 0.125207 0.909347
vt 0.128399 0.850638
vt 0.144486 0.909347
vt 0.144486 0.850638
vt 0.228948 0.909347
vt 0.228948 0.850638
vt 0.412283 0.485458
vt 0.470991 0.608542
vt 0.412283 0.608542
vt 0.656206 0.673761
vt 0.672293 0.567131
vt 0.672293 0.673761
vt 0.570435 0.904016
vt 0.550958 0.997921
vt 0.550958 0.904016
vt 0.965861 0.845307
vt 0.946384 0.858535
vt 0.946384 0.845307
vt 0.957673 0.225062
vt 0.938196 0.273126
vt 0.938196 0.225062
vt 0.957673 0.118433
vt 0.938196 0.118433
vt 0.981403 0.000000
vt 0.961926 0.106629
vt 0.961926 0.000000
vt 0.957673 0.273126
vt 0.938196 0.379755
vt 0.938196 0.273126
vt 0.771120 0.845307
vt 0.787126 0.751402
vt 0.787126 0.845307
vt 0.871588 0.845307
vt 0.887675 0.738678
vt 0.887675 0.845307
vt 0.772761 0.673761
vt 0.756755 0.579855
vt 0.772761 0.567131
vt 0.957673 0.427819
vt 0.938196 0.403639
vt 0.957673 0.403639
vt 0.871588 0.714794
vt 0.887675 0.690614
vt 0.656206 0.567131
vt 0.672293 0.543248
vt 0.957673 0.379755
vt 0.946384 0.968980
vt 0.965861 0.968980
vt 0.656206 0.519068
vt 0.628866 0.994152
vt 0.609389 0.904016
vt 0.628866 0.904016
vt 0.771120 0.738678
vt 0.121563 0.913749
vt 0.124899 0.972458
vt 0.121563 0.972458
vt 0.317792 0.484651
vt 0.362258 0.846094
vt 0.317792 0.846094
vt 0.139926 0.484651
vt 0.184393 0.846094
vt 0.139926 0.846094
vt 0.501827 0.000000
vt 0.584530 0.000000
vt 0.603470 0.477212
vt 0.000000 0.000000
vt 0.101764 0.457735
vt 0.018911 0.457735
vt 0.001816 0.913749
vt 0.005007 0.972458
vt 0.001816 0.972458
vt 0.005007 0.913749
vt 0.021094 0.972458
vt 0.021094 0.913749
vt 0.105557 0.972458
vt 0.105557 0.913749
vt 0.412283 0.608542
vt 0.470991 0.731626
vt 0.412283 0.731626
vt 0.534672 0.845307
vt 0.550759 0.738678
vt 0.550759 0.845307
vt 0.550958 0.904016
vt 0.531481 0.997921
vt 0.531481 0.904016
vt 0.977150 0.365780
vt 0.996627 0.352551
vt 0.996627 0.365780
vt 0.977150 0.379755
vt 0.957673 0.427819
vt 0.957673 0.379755
vt 0.977150 0.273126
vt 0.957673 0.273126
vt 0.996627 0.365780
vt 0.977150 0.472409
vt 0.977150 0.365780
vt 0.977150 0.118433
vt 0.957673 0.225062
vt 0.957673 0.118433
vt 0.771120 0.690614
vt 0.755114 0.784520
vt 0.755114 0.690614
vt 0.670651 0.690614
vt 0.654565 0.797243
vt 0.654565 0.690614
vt 0.651228 0.845307
vt 0.635222 0.751402
vt 0.651228 0.738678
vt 0.977150 0.273126
vt 0.957673 0.248946
vt 0.977150 0.248946
vt 0.670651 0.821127
vt 0.654565 0.845307
vt 0.534672 0.738678
vt 0.550759 0.714794
vt 0.977150 0.225062
vt 0.996627 0.242106
vt 0.977150 0.242106
vt 0.534672 0.690614
vt 0.959163 0.600296
vt 0.939686 0.690433
vt 0.939686 0.600296
vt 0.771120 0.797243
vt 0.368539 0.850663
vt 0.371876 0.909372
vt 0.368539 0.909372
vt 0.273325 0.484651
vt 0.317792 0.846094
vt 0.273325 0.846094
vt 0.228859 0.484651
vt 0.273325 0.846094
vt 0.228859 0.846094
vt 0.606736 0.477212
vt 0.603469 0.477212
vt 0.603469 0.000000
vt 0.482950 0.477212
vt 0.381186 0.019477
vt 0.464039 0.019477
vt 0.248291 0.850638
vt 0.251483 0.909347
vt 0.248291 0.909347
vt 0.251483 0.850638
vt 0.267569 0.909347
vt 0.267569 0.850638
vt 0.352032 0.909347
vt 0.352533 0.850663
vt 0.352533 0.909372
vt 0.411983 0.861274
vt 0.470692 0.984358
vt 0.411983 0.984358
vt 0.779290 0.673761
vt 0.795376 0.567131
vt 0.795376 0.673761
vt 0.609389 0.904016
vt 0.589912 0.997921
vt 0.589912 0.904016
vt 0.965861 0.801059
vt 0.985338 0.814288
vt 0.965861 0.814288
vt 0.965861 0.797243
vt 0.946384 0.845307
vt 0.946384 0.797243
vt 0.965861 0.690614
vt 0.946384 0.690614
vt 0.998395 0.477212
vt 0.978918 0.583841
vt 0.978918 0.477212
vt 0.938196 0.118433
vt 0.918719 0.225062
vt 0.918719 0.118433
vt 0.654565 1.000000
vt 0.670570 0.906095
vt 0.670570 1.000000
vt 0.755033 1.000000
vt 0.771120 0.893371
vt 0.771120 1.000000
vt 0.895845 0.673761
vt 0.879839 0.579855
vt 0.895845 0.567131
vt 0.938196 0.248946
vt 0.918719 0.273126
vt 0.918719 0.248946
vt 0.755033 0.869488
vt 0.771120 0.845307
vt 0.779290 0.567131
vt 0.795376 0.543248
vt 0.938196 0.225062
vt 0.985338 0.690614
vt 0.965861 0.690614
vt 0.779290 0.519068
vt 0.920209 0.600296
vt 0.900732 0.690433
vt 0.900732 0.600296
vt 0.654565 0.893371
vt 0.121871 0.850638
vt 0.125207 0.909347
vt 0.121871 0.909347
vt 0.362258 0.484651
vt 0.406725 0.846094
vt 0.362258 0.846094
vt 0.184393 0.484651
vt 0.228859 0.846094
vt 0.184393 0.846094
vt 0.081162 0.846094
vt 0.018523 0.846094
vt 0.004178 0.484651
vt 0.362213 0.477212
vt 0.260449 0.019477
vt 0.343302 0.019477
vt 0.002124 0.850638
vt 0.005315 0.909347
vt 0.002124 0.909347
vt 0.005315 0.850638
vt 0.021402 0.909347
vt 0.021402 0.850638
vt 0.105865 0.909347
vt 0.105865 0.850638
vt 0.411667 0.735753
vt 0.470376 0.858837
vt 0.411667 0.858837
vt 0.533123 0.673761
vt 0.549209 0.567131
vt 0.549209 0.673761
vt 0.589912 0.904016
vt 0.570435 0.997921
vt 0.570435 0.904016
vt 0.977150 0.228878
vt 0.996627 0.242106
vt 0.977150 0.242106
vt 0.978918 0.583842
vt 0.959441 0.631905
vt 0.959441 0.583842
vt 0.978918 0.477212
vt 0.959441 0.477212
vt 0.985338 0.814287
vt 0.965861 0.920917
vt 0.965861 0.814287
vt 0.938196 0.273126
vt 0.918719 0.379755
vt 0.918719 0.273126
vt 0.771120 1.000000
vt 0.787126 0.906095
vt 0.787126 1.000000
vt 0.871588 1.000000
vt 0.887675 0.893371
vt 0.887675 1.000000
vt 0.649678 0.673761
vt 0.633672 0.579855
vt 0.649678 0.567131
vt 0.938196 0.403639
vt 0.918719 0.427819
vt 0.918719 0.403639
vt 0.871588 0.869487
vt 0.887675 0.845307
vt 0.533123 0.567131
vt 0.549209 0.543248
vt 0.938196 0.379755
vt 0.996627 0.118433
vt 0.977150 0.118433
vt 0.533123 0.519068
vt 0.939686 0.690433
vt 0.920209 0.600296
vt 0.939686 0.600296
vt 0.771120 0.893371
vt 0.248291 0.850638
vt 0.903217 0.000000
vt 0.139926 0.484651
vt 0.844508 0.000000
vt 0.825631 0.477212
vt 0.844508 0.477212
vt 0.841383 0.477212
vt 0.723989 0.477212
vt 0.120738 0.477212
vt 0.120738 0.000000
vt 0.124011 0.019477
vt 0.124011 0.000000
vt 0.238344 0.000000
vt 0.241475 0.000000
vt 0.238344 0.019477
vt 0.139711 0.000000
vt 0.222564 0.000000
vt 0.470991 0.485458
vt 0.570435 0.997921
vt 0.965861 0.858535
vt 0.957673 0.273126
vt 0.981403 0.106629
vt 0.871588 0.738678
vt 0.756755 0.673761
vt 0.938196 0.427819
vt 0.609389 0.994152
vt 0.124899 0.913749
vt 0.362258 0.484651
vt 0.184393 0.484651
vt 0.482950 0.477212
vt 0.482950 0.000000
vt 0.486075 0.000000
vt 0.600202 0.000000
vt 0.603469 0.000000
vt 0.120738 0.000000
vt 0.120738 0.477212
vt 0.117465 0.457735
vt 0.117465 0.477212
vt 0.003131 0.477212
vt 0.000000 0.477212
vt 0.003131 0.457735
vt 0.101764 0.477212
vt 0.018911 0.477212
vt 0.470991 0.608542
vt 0.550958 0.997921
vt 0.977150 0.352551
vt 0.977150 0.427819
vt 0.996627 0.472409
vt 0.670651 0.797243
vt 0.635222 0.845307
vt 0.957673 0.273126
vt 0.959163 0.690433
vt 0.371876 0.850663
vt 0.317792 0.484651
vt 0.273325 0.484651
vt 0.723989 0.000000
vt 0.705112 0.477212
vt 0.723989 0.477212
vt 0.720863 0.477212
vt 0.622409 0.477212
vt 0.362213 0.477212
vt 0.362213 0.000000
vt 0.365486 0.019477
vt 0.365486 0.000000
vt 0.479819 0.000000
vt 0.482950 0.000000
vt 0.479819 0.019477
vt 0.381186 0.000000
vt 0.464039 0.000000
vt 0.352032 0.850638
vt 0.470692 0.861274
vt 0.609389 0.997921
vt 0.985338 0.801059
vt 0.965861 0.845307
vt 0.998395 0.583841
vt 0.755033 0.893371
vt 0.879839 0.673761
vt 0.938196 0.273126
vt 0.920209 0.690433
vt 0.125207 0.850638
vt 0.406725 0.484651
vt 0.228859 0.484651
vt 0.095460 0.484651
vt 0.095460 0.846094
vt 0.093093 0.846094
vt 0.006653 0.846094
vt 0.004178 0.846094
vt 0.241475 0.477212
vt 0.241475 0.000000
vt 0.244748 0.019477
vt 0.244748 0.000000
vt 0.359082 0.000000
vt 0.362213 0.000000
vt 0.359082 0.019477
vt 0.260449 0.000000
vt 0.343302 0.000000
vt 0.470376 0.735753
vt 0.589912 0.997921
vt 0.996627 0.228878
vt 0.978918 0.631905
vt 0.985338 0.920917
vt 0.871588 0.893371
vt 0.633672 0.673761
vt 0.938196 0.427819
vt 0.920209 0.690433
vn -1.0000 0.0000 0.0000
vn -0.0000 0.0000 -1.0000
vn 0.0000 0.0000 1.0000
vn 0.0000 -1.0000 0.0000
vn 0.0000 1.0000 0.0000
vn 1.0000 0.0000 -0.0000
vn 0.0000 0.7828 0.6223
vn -0.0000 0.5539 -0.8326
vn -0.0000 0.9245 -0.3812
vn 0.0000 -0.9175 0.3977
s off
f 16/1/1 5/2/1 9/3/1
f 2/4/2 5/5/2 6/6/2
f 8/7/3 3/8/3 4/9/3
f 10/10/4 9/11/4 1/12/4
f 4/13/5 19/14/5 18/15/5
f 8/16/1 12/17/1 7/18/1
f 13/19/1 11/20/1 12/17/1
f 14/21/1 10/22/1 11/20/1
f 15/23/1 9/3/1 10/22/1
f 4/24/6 1/25/6 2/26/6
f 13/27/1 22/28/1 14/29/1
f 19/30/3 23/31/3 15/32/3
f 24/33/7 27/34/7 28/35/7
f 25/36/3 29/37/3 21/38/3
f 17/39/3 21/38/3 13/40/3
f 16/41/2 28/42/2 20/43/2
f 14/44/2 26/45/2 18/46/2
f 20/47/6 27/48/6 19/49/6
f 18/50/6 25/51/6 17/52/6
f 16/53/1 23/54/1 24/55/1
f 29/56/8 32/57/8 30/58/8
f 25/51/6 32/59/6 31/60/6
f 21/61/1 30/62/1 22/28/1
f 22/63/2 32/57/2 26/45/2
f 31/64/9 24/33/9 29/65/9
f 24/55/1 30/62/1 29/66/1
f 23/67/10 32/68/10 30/69/10
f 28/70/6 32/59/6 27/48/6
f 48/71/1 37/72/1 41/73/1
f 34/74/2 37/75/2 38/76/2
f 40/77/3 35/78/3 36/79/3
f 43/80/4 42/81/4 33/82/4
f 36/83/5 51/84/5 50/85/5
f 40/86/1 44/87/1 39/88/1
f 45/89/1 43/90/1 44/87/1
f 46/91/1 42/92/1 43/90/1
f 47/93/1 41/73/1 42/92/1
f 36/94/6 33/95/6 34/96/6
f 45/97/1 54/98/1 46/99/1
f 51/100/3 55/101/3 47/102/3
f 56/103/7 59/104/7 60/105/7
f 57/106/3 61/107/3 53/108/3
f 49/109/3 53/108/3 45/110/3
f 48/111/2 60/112/2 52/113/2
f 46/114/2 58/115/2 50/116/2
f 52/117/6 59/118/6 51/119/6
f 50/120/6 57/121/6 49/122/6
f 48/123/1 55/124/1 56/125/1
f 61/126/8 64/127/8 62/128/8
f 57/121/6 64/129/6 63/130/6
f 53/131/1 62/132/1 54/98/1
f 54/133/2 64/127/2 58/115/2
f 63/134/9 56/103/9 61/135/9
f 56/125/1 62/132/1 61/136/1
f 59/137/10 62/138/10 55/139/10
f 60/140/6 64/129/6 59/118/6
f 80/141/1 69/142/1 73/143/1
f 66/144/2 69/145/2 70/146/2
f 72/147/3 67/148/3 68/149/3
f 73/150/4 69/151/4 65/152/4
f 68/153/5 83/154/5 82/155/5
f 72/156/1 76/157/1 71/158/1
f 77/159/1 75/160/1 76/157/1
f 78/161/1 74/162/1 75/160/1
f 79/163/1 73/143/1 74/164/1
f 68/165/6 65/166/6 66/167/6
f 77/168/1 86/169/1 78/170/1
f 83/171/3 87/172/3 79/173/3
f 87/174/7 92/175/7 88/176/7
f 89/177/3 93/178/3 85/179/3
f 81/180/3 85/179/3 77/181/3
f 80/182/2 92/183/2 84/184/2
f 78/185/2 90/186/2 82/187/2
f 84/188/6 91/189/6 83/190/6
f 82/191/6 89/192/6 81/193/6
f 80/194/1 87/195/1 88/196/1
f 94/197/8 95/198/8 96/199/8
f 89/192/6 96/200/6 95/201/6
f 85/202/1 94/203/1 86/169/1
f 86/204/2 96/199/2 90/186/2
f 95/205/9 88/176/9 93/206/9
f 88/196/1 94/203/1 93/207/1
f 91/208/10 94/209/10 87/210/10
f 92/211/6 96/200/6 91/189/6
f 112/212/1 101/213/1 105/214/1
f 98/215/2 101/216/2 102/217/2
f 104/218/3 99/219/3 100/220/3
f 107/221/4 106/222/4 97/223/4
f 100/224/5 115/225/5 114/226/5
f 104/227/1 108/228/1 103/229/1
f 109/230/1 107/231/1 108/228/1
f 110/232/1 106/233/1 107/231/1
f 111/234/1 105/214/1 106/233/1
f 100/235/6 97/236/6 98/237/6
f 109/238/1 118/239/1 110/240/1
f 115/241/3 119/242/3 111/243/3
f 119/244/7 124/245/7 120/246/7
f 121/247/3 125/248/3 117/249/3
f 113/250/3 117/249/3 109/251/3
f 112/252/2 124/253/2 116/254/2
f 110/255/2 122/256/2 114/257/2
f 116/258/6 123/259/6 115/260/6
f 114/261/6 121/262/6 113/263/6
f 112/264/1 119/265/1 120/266/1
f 126/267/8 127/268/8 128/269/8
f 121/262/6 128/270/6 127/271/6
f 117/272/1 126/273/1 118/239/1
f 118/274/2 128/269/2 122/256/2
f 127/275/9 120/246/9 125/276/9
f 120/266/1 126/273/1 125/277/1
f 119/278/10 128/279/10 126/280/10
f 124/281/6 128/270/6 123/259/6
f 16/1/1 6/282/1 5/2/1
f 2/4/2 1/283/2 5/5/2
f 8/7/3 7/284/3 3/8/3
f 1/12/4 3/285/4 11/286/4
f 3/285/4 7/287/4 12/288/4
f 12/288/4 11/286/4 3/285/4
f 9/11/4 5/289/4 1/12/4
f 11/286/4 10/10/4 1/12/4
f 2/290/5 6/291/5 20/292/5
f 6/291/5 16/293/5 20/292/5
f 13/294/5 8/295/5 17/296/5
f 8/295/5 4/13/5 17/296/5
f 4/13/5 2/290/5 19/14/5
f 2/290/5 20/292/5 19/14/5
f 19/14/5 15/297/5 14/298/5
f 18/15/5 17/296/5 4/13/5
f 19/14/5 14/298/5 18/15/5
f 8/16/1 13/19/1 12/17/1
f 13/19/1 14/21/1 11/20/1
f 14/21/1 15/23/1 10/22/1
f 15/23/1 16/1/1 9/3/1
f 4/24/6 3/299/6 1/25/6
f 13/27/1 21/61/1 22/28/1
f 19/30/3 27/300/3 23/31/3
f 24/33/7 23/301/7 27/34/7
f 25/36/3 31/302/3 29/37/3
f 17/39/3 25/36/3 21/38/3
f 16/41/2 24/303/2 28/42/2
f 14/44/2 22/63/2 26/45/2
f 20/47/6 28/70/6 27/48/6
f 18/50/6 26/304/6 25/51/6
f 16/53/1 15/305/1 23/54/1
f 29/56/8 31/306/8 32/57/8
f 25/51/6 26/304/6 32/59/6
f 21/61/1 29/66/1 30/62/1
f 22/63/2 30/58/2 32/57/2
f 31/64/9 28/35/9 24/33/9
f 24/55/1 23/54/1 30/62/1
f 23/67/10 27/307/10 32/68/10
f 28/70/6 31/60/6 32/59/6
f 48/71/1 38/308/1 37/72/1
f 34/74/2 33/309/2 37/75/2
f 40/77/3 39/310/3 35/78/3
f 33/82/4 35/311/4 43/80/4
f 35/311/4 39/312/4 44/313/4
f 44/313/4 43/80/4 35/311/4
f 41/314/4 37/315/4 33/82/4
f 42/81/4 41/314/4 33/82/4
f 34/316/5 38/317/5 52/318/5
f 38/317/5 48/319/5 52/318/5
f 45/320/5 40/321/5 49/322/5
f 40/321/5 36/83/5 49/322/5
f 36/83/5 34/316/5 51/84/5
f 34/316/5 52/318/5 51/84/5
f 51/84/5 47/323/5 46/324/5
f 50/85/5 49/322/5 36/83/5
f 51/84/5 46/324/5 50/85/5
f 40/86/1 45/89/1 44/87/1
f 45/89/1 46/91/1 43/90/1
f 46/91/1 47/93/1 42/92/1
f 47/93/1 48/71/1 41/73/1
f 36/94/6 35/325/6 33/95/6
f 45/97/1 53/131/1 54/98/1
f 51/100/3 59/326/3 55/101/3
f 56/103/7 55/327/7 59/104/7
f 57/106/3 63/328/3 61/107/3
f 49/109/3 57/106/3 53/108/3
f 48/111/2 56/329/2 60/112/2
f 46/114/2 54/133/2 58/115/2
f 52/117/6 60/140/6 59/118/6
f 50/120/6 58/330/6 57/121/6
f 48/123/1 47/331/1 55/124/1
f 61/126/8 63/332/8 64/127/8
f 57/121/6 58/330/6 64/129/6
f 53/131/1 61/136/1 62/132/1
f 54/133/2 62/128/2 64/127/2
f 63/134/9 60/105/9 56/103/9
f 56/125/1 55/124/1 62/132/1
f 59/137/10 64/333/10 62/138/10
f 60/140/6 63/130/6 64/129/6
f 80/141/1 70/334/1 69/142/1
f 66/144/2 65/335/2 69/145/2
f 72/147/3 71/336/3 67/148/3
f 65/152/4 67/337/4 75/338/4
f 67/337/4 71/339/4 76/340/4
f 75/338/4 67/337/4 76/340/4
f 75/338/4 74/341/4 65/152/4
f 74/341/4 73/150/4 65/152/4
f 66/342/5 70/343/5 84/344/5
f 70/343/5 80/345/5 84/344/5
f 77/346/5 72/347/5 81/348/5
f 72/347/5 68/153/5 81/348/5
f 68/153/5 66/342/5 83/154/5
f 66/342/5 84/344/5 83/154/5
f 83/154/5 79/349/5 82/155/5
f 79/349/5 78/350/5 82/155/5
f 82/155/5 81/348/5 68/153/5
f 72/156/1 77/159/1 76/157/1
f 77/159/1 78/161/1 75/160/1
f 78/161/1 79/351/1 74/162/1
f 79/163/1 80/141/1 73/143/1
f 68/165/6 67/352/6 65/166/6
f 77/168/1 85/202/1 86/169/1
f 83/171/3 91/353/3 87/172/3
f 87/174/7 91/354/7 92/175/7
f 89/177/3 95/355/3 93/178/3
f 81/180/3 89/177/3 85/179/3
f 80/182/2 88/356/2 92/183/2
f 78/185/2 86/204/2 90/186/2
f 84/188/6 92/211/6 91/189/6
f 82/191/6 90/357/6 89/192/6
f 80/194/1 79/358/1 87/195/1
f 94/197/8 93/359/8 95/198/8
f 89/192/6 90/357/6 96/200/6
f 85/202/1 93/207/1 94/203/1
f 86/204/2 94/197/2 96/199/2
f 95/205/9 92/175/9 88/176/9
f 88/196/1 87/195/1 94/203/1
f 91/208/10 96/360/10 94/209/10
f 92/211/6 95/201/6 96/200/6
f 112/212/1 102/361/1 101/213/1
f 98/215/2 97/362/2 101/216/2
f 104/218/3 103/363/3 99/219/3
f 97/223/4 99/364/4 107/221/4
f 99/364/4 103/365/4 108/366/4
f 108/366/4 107/221/4 99/364/4
f 105/367/4 101/368/4 97/223/4
f 106/222/4 105/367/4 97/223/4
f 98/369/5 102/370/5 116/371/5
f 102/370/5 112/372/5 116/371/5
f 109/373/5 104/374/5 113/375/5
f 104/374/5 100/224/5 113/375/5
f 100/224/5 98/369/5 115/225/5
f 98/369/5 116/371/5 115/225/5
f 115/225/5 111/376/5 114/226/5
f 111/376/5 110/377/5 114/226/5
f 114/226/5 113/375/5 100/224/5
f 104/227/1 109/230/1 108/228/1
f 109/230/1 110/232/1 107/231/1
f 110/232/1 111/234/1 106/233/1
f 111/234/1 112/212/1 105/214/1
f 100/235/6 99/378/6 97/236/6
f 109/238/1 117/272/1 118/239/1
f 115/241/3 123/379/3 119/242/3
f 119/244/7 123/380/7 124/245/7
f 121/247/3 127/381/3 125/248/3
f 113/250/3 121/247/3 117/249/3
f 112/252/2 120/382/2 124/253/2
f 110/255/2 118/274/2 122/256/2
f 116/258/6 124/281/6 123/259/6
f 114/261/6 122/383/6 121/262/6
f 112/264/1 111/384/1 119/265/1
f 126/267/8 125/385/8 127/268/8
f 121/262/6 122/383/6 128/270/6
f 117/272/1 125/277/1 126/273/1
f 118/274/2 126/267/2 128/269/2
f 127/275/9 124/245/9 120/246/9
f 120/266/1 119/265/1 126/273/1
f 119/278/10 123/386/10 128/279/10
f 124/281/6 127/271/6 128/270/6
