# Blender v2.93.4 OBJ File: 'SuperSmallWallJump.blend'
# www.blender.org
o Cube
v 0.063359 0.659071 -0.401194
v 0.063359 -0.659071 -0.401194
v 0.063359 0.659071 0.401194
v 0.063359 -0.659071 0.401194
v -0.063359 0.659071 -0.401194
v -0.063359 -0.659071 -0.401194
v -0.063359 0.659071 0.401194
v -0.063359 -0.659071 0.401194
vt 1.000000 0.404240
vt 0.936160 0.808480
vt 0.936160 0.404240
vt 0.872320 0.664075
vt 0.808480 0.000000
vt 0.872320 0.000000
vt 0.404240 0.664075
vt 0.000000 0.000000
vt 0.404240 0.000000
vt 1.000000 0.000000
vt 0.936160 0.404240
vt 0.936160 0.000000
vt 0.808480 0.664075
vt 0.404240 0.000000
vt 0.808480 0.000000
vt 0.936160 0.664075
vt 0.872320 0.000000
vt 1.000000 0.808480
vt 0.808480 0.664075
vt 0.000000 0.664075
vt 1.000000 0.404240
vt 0.404240 0.664075
vt 0.872320 0.664075
vn 0.0000 1.0000 0.0000
vn 0.0000 0.0000 1.0000
vn -1.0000 0.0000 0.0000
vn 0.0000 -1.0000 0.0000
vn 1.0000 0.0000 0.0000
vn 0.0000 0.0000 -1.0000
s off
f 5/1/1 3/2/1 1/3/1
f 3/4/2 8/5/2 4/6/2
f 7/7/3 6/8/3 8/9/3
f 2/10/4 8/11/4 6/12/4
f 1/13/5 4/14/5 2/15/5
f 5/16/6 2/17/6 6/12/6
f 5/1/1 7/18/1 3/2/1
f 3/4/2 7/19/2 8/5/2
f 7/7/3 5/20/3 6/8/3
f 2/10/4 4/21/4 8/11/4
f 1/13/5 3/22/5 4/14/5
f 5/16/6 1/23/6 2/17/6
