# Blender v2.93.4 OBJ File: 'Vinyl.blend'
# www.blender.org
o Circle_Circle.005
v 0.000000 0.520422 -0.507513
v -0.000000 0.774179 -0.439519
v -0.000000 0.959942 -0.253757
v -0.000000 1.027936 0.000000
v -0.000000 0.959942 0.253757
v -0.000000 0.774179 0.439519
v 0.000000 0.520422 0.507513
v 0.000000 0.266665 0.439519
v 0.000000 0.080903 0.253757
v 0.000000 0.012909 -0.000000
v 0.000000 0.080903 -0.253757
v 0.000000 0.266665 -0.439519
v -0.028902 0.520422 -0.507513
v -0.028902 0.774179 -0.439519
v -0.028902 0.959942 -0.253757
v -0.028902 1.027936 0.000000
v -0.028902 0.959942 0.253757
v -0.028902 0.774179 0.439519
v -0.028902 0.520422 0.507513
v -0.028902 0.266665 0.439519
v -0.028902 0.080903 0.253757
v -0.028902 0.012909 -0.000000
v -0.028902 0.080903 -0.253757
v -0.028902 0.266665 -0.439519
v -0.000000 0.573968 0.000000
v -0.000000 0.568687 -0.024841
v -0.000000 0.568687 0.024841
v 0.000000 0.506509 0.060740
v -0.000000 0.531766 0.058085
v -0.000000 0.553760 0.045387
v -0.000000 0.553760 -0.045387
v -0.000000 0.531766 -0.058085
v 0.000000 0.506509 -0.060740
v 0.000000 0.463483 0.035898
v 0.000000 0.453154 0.012698
v 0.000000 0.453154 -0.012698
v 0.000000 0.463483 -0.035898
v 0.000000 0.482356 0.052892
v 0.000000 0.482356 -0.052892
v -0.028902 0.573968 0.000000
v -0.028902 0.568687 0.024841
v -0.028902 0.568687 -0.024841
v -0.028902 0.506509 0.060740
v -0.028902 0.553760 0.045387
v -0.028902 0.531766 0.058085
v -0.028902 0.553760 -0.045387
v -0.028902 0.531766 -0.058085
v -0.028902 0.506509 -0.060740
v -0.028902 0.463483 -0.035898
v -0.028902 0.453154 0.012698
v -0.028902 0.453154 -0.012698
v -0.028902 0.463483 0.035898
v -0.028902 0.482356 0.052892
v -0.028902 0.482356 -0.052892
vt 0.744040 0.486076
vt 0.610066 0.500815
vt 0.610066 0.486076
vt 0.624805 0.634790
vt 0.639544 0.768765
vt 0.624805 0.768765
vt 0.610066 0.976435
vt 0.744040 0.961696
vt 0.744040 0.976435
vt 0.610066 0.917478
vt 0.744040 0.902739
vt 0.744040 0.917479
vt 0.744040 0.917479
vt 0.610066 0.932218
vt 0.610066 0.917479
vt 0.610066 0.946957
vt 0.744040 0.932218
vt 0.744040 0.946957
vt 0.624805 0.500815
vt 0.639544 0.634790
vt 0.624805 0.634790
vt 0.610066 0.634790
vt 0.624805 0.768765
vt 0.610066 0.768765
vt 0.610066 0.768765
vt 0.624805 0.902739
vt 0.610066 0.902739
vt 0.610066 0.961696
vt 0.610066 0.946957
vt 0.610066 0.500815
vt 0.624805 0.500815
vt 0.610066 0.486076
vt 0.744041 0.471337
vt 0.744041 0.486076
vt 0.433015 0.933013
vt 0.269310 0.769309
vt 0.276364 0.758448
vt 0.216524 0.742414
vt 0.000000 0.683013
vt 0.221165 0.730323
vt 0.500002 0.183014
vt 0.283479 0.242414
vt 0.278837 0.230323
vt 0.066988 0.433014
vt 0.223638 0.258448
vt 0.230692 0.269310
vt 0.715232 0.318238
vt 0.694838 0.324960
vt 0.698833 0.314585
vt 0.715232 0.300040
vt 0.698395 0.303318
vt 0.707774 0.283118
vt 0.693445 0.293107
vt 0.693860 0.270412
vt 0.684727 0.285807
vt 0.675389 0.264305
vt 0.673713 0.282878
vt 0.654889 0.266700
vt 0.662488 0.285090
vt 0.653236 0.291313
vt 0.639072 0.279636
vt 0.647647 0.300954
vt 0.630766 0.296743
vt 0.646720 0.311944
vt 0.630166 0.314934
vt 0.650657 0.322390
vt 0.636509 0.331401
vt 0.657663 0.331224
vt 0.648297 0.344331
vt 0.667108 0.336235
vt 0.663839 0.351193
vt 0.677561 0.336804
vt 0.679942 0.351128
vt 0.695272 0.346011
vt 0.687269 0.332756
vt 0.708017 0.334512
vt 0.744040 0.500815
vt 0.639544 0.634790
vt 0.610066 0.961696
vt 0.610066 0.902739
vt 0.744040 0.932218
vt 0.610066 0.932218
vt 0.639544 0.500815
vt 0.624805 0.634790
vt 0.624805 0.768765
vt 0.744040 0.961696
vt 0.610066 0.634790
vt 0.610066 0.471337
vt 0.255348 0.717201
vt 0.242414 0.716523
vt 0.316988 0.500000
vt 0.183014 0.500001
vt 0.433014 0.566987
vt 0.266888 0.723081
vt 0.275038 0.733146
vt 0.500002 0.683013
vt 0.500002 0.816987
vt 0.278390 0.745656
vt 0.316989 1.000000
vt 0.258449 0.776363
vt 0.245657 0.778389
vt 0.183015 1.000000
vt 0.066988 0.933014
vt 0.233146 0.775037
vt 0.000000 0.816989
vt 0.223081 0.766887
vt 0.217202 0.755347
vt 0.066988 0.566988
vt 0.230323 0.721165
vt 0.269679 0.221165
vt 0.257588 0.216524
vt 0.316988 0.000000
vt 0.433014 0.066988
vt 0.500002 0.316989
vt 0.282801 0.255348
vt 0.276921 0.266887
vt 0.433014 0.433014
vt 0.316988 0.500000
vt 0.266856 0.275038
vt 0.254346 0.278390
vt 0.183014 0.500000
vt 0.241554 0.276364
vt 0.000001 0.316989
vt 0.000000 0.183014
vt 0.221612 0.245656
vt 0.224964 0.233146
vt 0.066987 0.066988
vt 0.183013 0.000000
vt 0.233115 0.223081
vt 0.244655 0.217201
vn 0.0000 -0.9659 0.2588
vn 0.0000 0.2588 0.9659
vn 0.0000 0.9659 -0.2588
vn 0.0000 -0.9659 -0.2588
vn 0.0000 -0.2588 0.9659
vn 0.0000 0.9659 0.2588
vn 0.0000 -0.7071 -0.7071
vn 0.0000 0.2588 -0.9659
vn 0.0000 -0.7071 0.7071
vn 0.0000 0.7071 0.7071
vn 0.0000 -0.2588 -0.9659
vn 0.0000 0.7071 -0.7071
vn 1.0000 0.0000 0.0000
vn -1.0000 -0.0000 -0.0000
vn 0.0000 -0.9781 0.2079
vn 0.0000 -0.8090 0.5878
vn 0.0000 -0.5000 0.8660
vn 0.0000 -0.1045 0.9945
vn 0.0000 0.3090 0.9511
vn -0.0000 0.6691 0.7431
vn 0.0000 0.9135 0.4067
vn 0.0000 1.0000 0.0000
vn 0.0000 0.9135 -0.4067
vn 0.0000 0.6691 -0.7431
vn 0.0000 0.3090 -0.9511
vn 0.0000 -0.1045 -0.9945
vn 0.0000 -0.5000 -0.8660
vn 0.0000 -0.8090 -0.5878
vn 0.0000 -0.9781 -0.2079
s off
f 9/1/1 22/2/1 10/3/1
f 6/4/2 19/5/2 7/6/2
f 3/7/3 16/8/3 4/9/3
f 10/10/4 23/11/4 11/12/4
f 7/13/5 20/14/5 8/15/5
f 4/16/6 17/17/6 5/18/6
f 11/19/7 24/20/7 12/21/7
f 1/22/8 14/23/8 2/24/8
f 8/25/9 21/26/9 9/27/9
f 5/18/10 18/28/10 6/29/10
f 12/21/11 13/30/11 1/31/11
f 2/32/12 15/33/12 3/34/12
f 4/35/13 25/36/13 26/37/13
f 34/38/13 9/39/13 35/40/13
f 21/41/14 52/42/14 50/43/14
f 16/44/14 42/45/14 40/46/14
f 26/47/15 40/48/15 42/49/15
f 31/50/16 42/49/16 46/51/16
f 32/52/17 46/51/17 47/53/17
f 33/54/18 47/53/18 48/55/18
f 39/56/19 48/55/19 54/57/19
f 37/58/20 54/57/20 49/59/20
f 37/58/21 51/60/21 36/61/21
f 36/61/22 50/62/22 35/63/22
f 35/63/23 52/64/23 34/65/23
f 34/65/24 53/66/24 38/67/24
f 38/67/25 43/68/25 28/69/25
f 28/69/26 45/70/26 29/71/26
f 29/71/27 44/72/27 30/73/27
f 27/74/28 44/72/28 41/75/28
f 25/76/29 41/75/29 40/48/29
f 9/1/1 21/77/1 22/2/1
f 6/4/2 18/78/2 19/5/2
f 3/7/3 15/79/3 16/8/3
f 10/10/4 22/80/4 23/11/4
f 7/13/5 19/81/5 20/14/5
f 4/16/6 16/82/6 17/17/6
f 11/19/7 23/83/7 24/20/7
f 1/22/8 13/84/8 14/23/8
f 8/25/9 20/85/9 21/26/9
f 5/18/10 17/86/10 18/28/10
f 12/21/11 24/87/11 13/30/11
f 2/32/12 14/88/12 15/33/12
f 39/89/13 37/90/13 12/91/13
f 37/90/13 11/92/13 12/91/13
f 12/91/13 1/93/13 33/94/13
f 33/94/13 1/93/13 32/95/13
f 1/93/13 2/96/13 32/95/13
f 2/96/13 3/97/13 31/98/13
f 32/95/13 2/96/13 31/98/13
f 3/97/13 4/35/13 26/37/13
f 4/35/13 5/99/13 27/100/13
f 27/100/13 5/99/13 30/101/13
f 5/99/13 6/102/13 30/101/13
f 6/102/13 7/103/13 29/104/13
f 30/101/13 6/102/13 29/104/13
f 7/103/13 8/105/13 28/106/13
f 8/105/13 38/107/13 28/106/13
f 33/94/13 39/89/13 12/91/13
f 7/103/13 28/106/13 29/104/13
f 4/35/13 27/100/13 25/36/13
f 26/37/13 31/98/13 3/97/13
f 38/107/13 8/105/13 34/38/13
f 8/105/13 9/39/13 34/38/13
f 9/39/13 10/108/13 35/40/13
f 10/108/13 11/92/13 36/109/13
f 11/92/13 37/90/13 36/109/13
f 36/109/13 35/40/13 10/108/13
f 51/110/14 49/111/14 23/112/14
f 23/112/14 22/113/14 51/110/14
f 22/113/14 21/41/14 50/43/14
f 51/110/14 22/113/14 50/43/14
f 21/41/14 20/114/14 52/42/14
f 20/114/14 53/115/14 52/42/14
f 43/116/14 53/115/14 20/114/14
f 20/114/14 19/117/14 43/116/14
f 19/117/14 18/118/14 45/119/14
f 45/119/14 18/118/14 44/120/14
f 18/118/14 17/121/14 44/120/14
f 17/121/14 16/44/14 41/122/14
f 44/120/14 17/121/14 41/122/14
f 16/44/14 15/123/14 42/45/14
f 15/123/14 14/124/14 46/125/14
f 46/125/14 14/124/14 47/126/14
f 14/124/14 13/127/14 47/126/14
f 13/127/14 24/128/14 48/129/14
f 47/126/14 13/127/14 48/129/14
f 24/128/14 23/112/14 49/111/14
f 24/128/14 49/111/14 54/130/14
f 45/119/14 43/116/14 19/117/14
f 24/128/14 54/130/14 48/129/14
f 15/123/14 46/125/14 42/45/14
f 40/46/14 41/122/14 16/44/14
f 26/47/15 25/76/15 40/48/15
f 31/50/16 26/47/16 42/49/16
f 32/52/17 31/50/17 46/51/17
f 33/54/18 32/52/18 47/53/18
f 39/56/19 33/54/19 48/55/19
f 37/58/20 39/56/20 54/57/20
f 37/58/21 49/59/21 51/60/21
f 36/61/22 51/60/22 50/62/22
f 35/63/23 50/62/23 52/64/23
f 34/65/24 52/64/24 53/66/24
f 38/67/25 53/66/25 43/68/25
f 28/69/26 43/68/26 45/70/26
f 29/71/27 45/70/27 44/72/27
f 27/74/28 30/73/28 44/72/28
f 25/76/29 27/74/29 41/75/29
